<svg xmlns="http://www.w3.org/2000/svg" version="1.1" xmlns:xlink="http://www.w3.org/1999/xlink" xmlns:svgjs="http://svgjs.dev/svgjs" width="1440" height="560" preserveAspectRatio="none" viewBox="0 0 1440 560"><g mask="url(&quot;#SvgjsMask1000&quot;)" fill="none"><rect width="1440" height="560" x="0" y="0" fill="#0e2a47"></rect><path d="M140 72.59C81.91 58.72 41.62 118.5 0 96.92C-28.38 82.2 -28.64 19.82 0 0C41.36 -28.64 70 0 140 0C189 0 190.84 -7.45 238 0C260.84 3.61 260.64 22.11 280 22.11C292.84 22.11 287.62 2.33 302.4 0C357.62 -8.72 361.2 0 420 0C490 0 490 0 560 0C630 0 630 0 700 0C770 0 770 0 840 0C877.56 0 885.68 -16.95 915.12 0C955.68 23.35 954.12 80.61 980 80.61C1001.5 80.61 979.2 17.67 1009.89 0C1049.2 -22.63 1064.94 0 1120 0C1189.01 0 1191.39 -3.18 1258.03 0C1261.39 0.16 1258.93 6.67 1260 6.67C1261.08 6.67 1258.91 0.16 1262.33 0C1328.91 -3.17 1331.16 0 1400 0C1470 0 1505 -35 1540 0C1575 35 1540 70 1540 140C1540 190.77 1563.16 241.54 1540 241.54C1504.68 241.54 1480.38 191.94 1423.04 140C1410.38 128.53 1414.09 114.72 1400 114.72C1375 114.72 1370.18 123.64 1344.85 140C1300.18 168.84 1299.73 169.56 1260 205.12C1221.53 239.56 1221.83 240.53 1188.44 280C1151.83 323.27 1165.71 342.16 1120 370.59C1061.49 406.98 1046.89 386.68 980 409.63C974.89 411.39 976 415.12 976 420C976 422.85 977.59 422.93 980 425.09C1049.59 487.54 1050.63 550.49 1120 549.23C1190.63 547.95 1190 484.62 1260 420C1260 420 1260 420 1260 420C1330 394.21 1328.26 387.68 1400 368.42C1468.26 350.09 1494.24 327.95 1540 344.81C1564.24 353.74 1540 382.4 1540 420C1540 490 1569.58 519.58 1540 560C1518.36 589.58 1478.63 578.07 1437.56 560C1408.63 547.27 1420.33 498.4 1400 498.4C1378.22 498.4 1385.04 546.05 1353.33 560C1315.04 576.85 1306.66 560 1260 560C1190 560 1190 560 1120 560C1050 560 1050 560 980 560C910 560 910 560 840 560C795.45 560 793.52 567.99 750.91 560C723.52 554.86 722.83 533.75 700 533.75C686.32 533.75 693.67 557.04 677.89 560C623.67 570.17 618.94 560 560 560C502.57 560 492.14 576.88 445.13 560C422.14 551.75 432.57 509.74 420 509.74C407.43 509.74 417.86 551.75 394.87 560C347.86 576.88 337.43 560 280 560C210 560 210 560 140 560C80.65 560 78.93 565.76 21.3 560C8.93 558.76 1.79 557.78 0 546C-8.86 487.78 0 483 0 420C0 350 0 350 0 280C0 222.73 -29.56 174.79 0 165.45C40.44 152.68 85.77 243.44 140 235.79C175.99 230.71 180.44 186.47 180.44 140C180.44 104.87 172.13 80.26 140 72.59" stroke="rgba(51, 121, 194, 0.58)" stroke-width="2"></path><path d="M560 366.8C532.92 366.8 499.55 396.96 499.55 420C499.55 439.58 531.55 452.05 560 452.05C580.5 452.05 597.46 438.37 597.46 420C597.46 395.75 581.88 366.8 560 366.8" stroke="rgba(51, 121, 194, 0.58)" stroke-width="2"></path><path d="M140 7.78C129.53 7.78 117.89 2 117.89 0C117.89 -1.89 128.94 0 140 0C145.25 0 150.5 -1.73 150.5 0C150.5 2.16 145.84 7.78 140 7.78" stroke="rgba(51, 121, 194, 0.58)" stroke-width="2"></path><path d="M219.33 140C219.33 101.51 248.08 102.61 280 68.16C312.95 32.61 308.63 19.69 349.07 0C378.63 -14.39 384.53 0 420 0C490 0 558.87 -29.32 560 0C561.56 40.68 425.38 73.61 425.38 140C425.38 200.06 497.66 252.9 560 252.9C612.26 252.9 609.02 197.78 654.59 140C679.02 109.02 667.93 95.56 700 75.38C760.64 37.22 783.39 6.76 840 23.33C893.78 39.07 886.97 78.04 920.77 140C956.97 206.38 978.68 209.55 980 280C981.3 349.55 926 354.05 926 420C926 458.42 950.42 456.72 980 488.73C1015.11 526.72 1055.38 539.36 1055.38 560C1055.38 575 1017.69 560 980 560C918.75 560 917.19 565.08 857.5 560C847.19 559.12 849.4 552.92 840 548.09C770.65 512.45 764.01 521.49 700 479.06C667.39 457.45 670.94 451.48 646.76 420C600.94 360.35 610.67 296.8 560 296.8C497.29 296.8 490 358.4 420 420C420 420 420 420 420 420C385 490 398.37 511.63 350 560C328.37 581.63 315 560 280 560C210 560 210 560 140 560C118.69 560 116.13 568.57 97.39 560C46.13 536.57 29.47 538.37 0 496C-19.22 468.37 0 458 0 420C0 360.89 -28.04 303.78 0 301.78C41.96 298.78 68.03 405.72 140 410C208.03 414.05 208.01 360.65 280 318.43C318.84 295.65 361.67 298.92 361.67 280C361.67 261.21 310.5 273.02 280 243.02C239.33 203.02 219.33 188.94 219.33 140" stroke="rgba(51, 121, 194, 0.58)" stroke-width="2"></path><path d="M1120 108.62C1081.69 108.62 1049.21 35.13 1049.21 0C1049.21 -19.18 1084.61 0 1120 0C1164.36 0 1208.73 -21.04 1208.73 0C1208.73 33.27 1161.45 108.62 1120 108.62" stroke="rgba(51, 121, 194, 0.58)" stroke-width="2"></path><path d="M1400 66.11C1362.74 30.54 1320.67 18.69 1320.67 0C1320.67 -14.36 1360.34 0 1400 0C1470 0 1505 -35 1540 0C1575 35 1540 70 1540 140C1540 171.54 1554.39 203.08 1540 203.08C1518.06 203.08 1501.67 173.59 1467.34 140C1431.67 105.1 1436.07 100.54 1400 66.11" stroke="rgba(51, 121, 194, 0.58)" stroke-width="2"></path><path d="M1502.67 420C1504.51 403.84 1525.28 409.63 1540 409.63C1543.94 409.63 1540 414.82 1540 420C1540 490 1547.61 497.61 1540 560C1539.07 567.61 1524.94 567.54 1522.93 560C1506.27 497.54 1495.97 479.02 1502.67 420" stroke="rgba(51, 121, 194, 0.58)" stroke-width="2"></path><path d="M490 560C490 540.97 524.79 494.22 560 494.22C595.71 494.22 631.84 541.07 631.84 560C631.84 573.96 595.92 560 560 560C525 560 490 573.86 490 560" stroke="rgba(51, 121, 194, 0.58)" stroke-width="2"></path><path d="M258.22 140C258.22 126.18 266.46 114.21 280 114.21C303.14 114.21 331.58 125.06 331.58 140C331.58 156.44 301.88 176.98 280 176.98C265.2 176.98 258.22 157.57 258.22 140" stroke="rgba(51, 121, 194, 0.58)" stroke-width="2"></path><path d="M420 49.19C403.98 49.19 395.73 17.05 395.73 0C395.73 -7.54 407.87 0 420 0C443.94 0 467.89 -10.11 467.89 0C467.89 14.49 440.06 49.19 420 49.19" stroke="rgba(51, 121, 194, 0.58)" stroke-width="2"></path><path d="M1120 48.28C1102.97 48.28 1088.54 15.62 1088.54 0C1088.54 -8.52 1104.27 0 1120 0C1139.72 0 1159.44 -9.35 1159.44 0C1159.44 14.79 1138.42 48.28 1120 48.28" stroke="rgba(51, 121, 194, 0.58)" stroke-width="2"></path><path d="M1400 17.5C1390.61 7.59 1379 4.95 1379 0C1379 -3.8 1389.5 0 1400 0C1470 0 1505 -35 1540 0C1575 35 1540 70 1540 140C1540 152.31 1545.61 164.62 1540 164.62C1531.44 164.62 1524.58 153.59 1511.65 140C1454.58 80.03 1456.93 77.59 1400 17.5" stroke="rgba(51, 121, 194, 0.58)" stroke-width="2"></path><path d="M633.89 280C634.68 235.84 664.1 200.67 700 200.67C741.23 200.67 744.6 239.77 788.15 280C814.6 304.44 821.27 300.16 840 330C865.2 370.16 876 376.9 876 420C876 448.71 866.68 472.96 840 473.62C778.68 475.15 769.22 450.17 700 424.38C697.25 423.36 697.28 422.67 696.06 420C664.23 350.48 632.71 345.51 633.89 280" stroke="rgba(51, 121, 194, 0.58)" stroke-width="2"></path><path d="M0 379.56C15.04 379.56 49.19 402.27 49.19 420C49.19 435.49 16.76 446 0 446C-7.83 446 0 433 0 420C0 399.78 -9.55 379.56 0 379.56" stroke="rgba(51, 121, 194, 0.58)" stroke-width="2"></path><path d="M233.33 420C244.49 395.39 256.77 387.06 280 387.06C302.81 387.06 321.84 395.45 325.41 420C334.41 481.92 324.41 500.56 305.13 560C301.7 570.56 292.57 560 280 560C240.8 560 209.84 584.73 201.6 560C186.51 514.73 205.29 481.86 233.33 420" stroke="rgba(51, 121, 194, 0.58)" stroke-width="2"></path><path d="M534.87 560C534.87 553.17 547.36 536.39 560 536.39C572.82 536.39 585.79 553.21 585.79 560C585.79 565.01 572.89 560 560 560C547.43 560 534.87 564.98 534.87 560" stroke="rgba(51, 121, 194, 0.58)" stroke-width="2"></path><path d="M966.88 560C966.88 557.95 973.88 552.36 980 552.36C984.48 552.36 988.08 557.79 988.08 560C988.08 561.61 984.04 560 980 560C973.44 560 966.88 561.77 966.88 560" stroke="rgba(51, 121, 194, 0.58)" stroke-width="2"></path></g><defs><mask id="SvgjsMask1000"><rect width="1440" height="560" fill="#ffffff"></rect></mask></defs></svg>