<?xml version="1.0" standalone="no"?>
<!DOCTYPE svg PUBLIC "-//W3C//DTD SVG 20010904//EN"
 "http://www.w3.org/TR/2001/REC-SVG-20010904/DTD/svg10.dtd">
<svg version="1.0" xmlns="http://www.w3.org/2000/svg"
 width="474.000000pt" height="711.000000pt" viewBox="0 0 474.000000 711.000000"
 preserveAspectRatio="xMidYMid meet">

<g transform="translate(0.000000,711.000000) scale(0.100000,-0.100000)"
fill="#000000" stroke="none">
<path d="M0 5925 c0 -652 3 -1185 8 -1185 4 0 29 39 55 88 65 121 114 208 332
600 155 278 193 340 207 336 10 -3 18 -1 18 5 0 6 -5 11 -11 11 -5 0 -7 5 -4
10 4 6 11 8 16 5 5 -4 20 2 33 13 23 18 23 19 5 30 -10 7 -19 8 -19 3 0 -5 -8
-12 -18 -14 -9 -2 -7 -3 5 -2 36 3 17 -11 -31 -25 -33 -9 -43 -16 -39 -27 5
-13 3 -14 -18 -3 -23 12 -59 45 -59 54 0 2 10 2 23 0 12 -2 8 1 -10 7 -37 13
-63 66 -38 76 8 3 15 15 14 27 0 20 -1 20 -10 -3 -5 -13 -12 -21 -15 -18 -10
10 6 58 16 52 14 -8 12 6 -5 54 -8 23 -12 47 -9 55 3 7 -2 16 -10 19 -9 4 -16
15 -16 25 0 10 -3 22 -7 25 -3 4 -7 30 -8 57 l-2 50 41 1 c35 1 38 2 16 9 -19
6 -11 8 30 7 30 0 61 -5 68 -10 7 -6 16 -7 19 -3 4 4 1 11 -7 16 -11 7 -8 10
13 10 15 0 36 5 47 10 11 6 29 15 40 20 25 12 33 13 26 1 -4 -5 4 -7 16 -3 12
3 17 7 10 10 -17 5 -15 22 2 22 8 0 28 17 46 38 17 20 29 32 26 25 -4 -6 -1
-15 6 -19 7 -4 10 -4 6 1 -4 4 -3 14 2 21 6 6 10 16 9 20 -3 19 2 40 16 58 13
17 17 17 31 5 16 -13 16 -12 6 8 -15 28 -15 36 0 27 7 -5 8 -3 3 5 -4 7 0 29
8 49 8 21 19 46 23 57 7 19 8 19 11 -2 5 -24 29 -38 39 -21 4 6 12 -1 19 -18
7 -19 14 -24 19 -16 4 7 2 12 -3 12 -6 0 -11 7 -11 15 0 17 16 20 23 5 3 -6 4
-5 3 2 -2 7 6 21 17 31 11 9 17 20 13 25 -4 4 -15 -2 -24 -13 -17 -21 -65 -29
-59 -10 2 5 10 10 18 10 8 0 22 8 33 19 15 15 16 20 5 27 -12 7 -12 9 0 9 8 0
20 -8 27 -17 13 -17 14 -17 8 0 -5 14 9 69 22 86 2 2 11 -2 20 -10 15 -12 17
-12 12 1 -7 23 -39 25 -45 2 -2 -11 -18 -29 -34 -41 -17 -13 -26 -27 -23 -36
4 -11 0 -15 -16 -15 -16 0 -20 4 -16 15 3 8 1 15 -4 15 -6 0 -10 8 -11 18 0
14 -2 14 -9 -3 -5 -11 -9 -27 -9 -35 0 -9 4 -8 9 5 6 14 8 4 7 -32 -2 -46 -3
-49 -14 -30 -14 25 -16 93 -3 122 5 11 9 16 10 10 0 -5 7 -1 15 9 11 14 15 16
15 6 0 -15 36 41 46 73 4 9 10 17 15 17 5 0 9 7 9 15 0 14 48 45 70 45 7 0 9
-9 5 -22 -5 -18 -4 -20 4 -8 10 13 11 13 11 0 0 -13 1 -13 10 0 5 8 12 11 16
7 8 -8 -15 -39 -25 -32 -4 2 -8 -9 -8 -25 0 -28 1 -28 28 14 40 64 51 87 40
84 -5 -2 -9 2 -9 7 -1 6 5 9 12 9 11 -1 86 121 86 139 0 3 -240 6 -533 7
l-534 0 -31 -69 c-18 -39 -32 -77 -32 -85 0 -8 -4 -18 -10 -21 -5 -3 -10 -3
-10 2 0 17 29 102 44 131 9 17 16 33 16 37 0 3 -43 5 -95 5 l-95 0 0 -1185z
m1244 1150 c-4 -8 -8 -15 -10 -15 -2 0 -4 7 -4 15 0 8 4 15 10 15 5 0 7 -7 4
-15z m-739 -35 c3 -5 -3 -10 -14 -10 -13 0 -21 -7 -21 -16 0 -13 -3 -14 -15
-4 -11 9 -12 15 -2 25 14 17 43 19 52 5z m-150 -90 c3 -5 1 -10 -4 -10 -6 0
-11 5 -11 10 0 6 2 10 4 10 3 0 8 -4 11 -10z m812 -12 c7 -6 10 -15 7 -20 -4
-6 -10 -5 -15 3 -8 12 -10 12 -18 1 -6 -11 -9 -9 -13 5 -6 22 18 28 39 11z
m-877 -78 c6 -11 9 -20 7 -20 -2 0 -12 9 -22 20 -10 11 -13 20 -7 20 6 0 16
-9 22 -20z m-26 -42 c8 -6 8 -8 -1 -8 -15 0 -35 35 -25 45 4 4 9 -1 11 -12 2
-10 8 -21 15 -25z m-74 -68 c0 -5 -4 -10 -10 -10 -5 0 -10 5 -10 10 0 6 5 10
10 10 6 0 10 -4 10 -10z m216 -489 c-9 -10 -16 -24 -17 -32 0 -12 -26 45 -28
63 -1 4 13 2 30 -4 28 -9 29 -12 15 -27z"/>
<path d="M1679 6933 c-92 -159 -213 -357 -304 -498 -18 -27 -78 -122 -135
-210 -56 -88 -109 -165 -117 -172 -12 -9 -13 -16 -5 -26 9 -11 24 -2 76 47
110 104 190 172 209 179 9 3 17 12 17 20 0 7 17 58 39 113 l38 99 84 58 c46
31 116 78 154 104 39 25 80 55 93 66 28 26 39 25 256 -14 137 -25 171 -28 177
-17 7 10 9 9 9 -3 0 -11 12 -19 36 -24 20 -3 37 -5 38 -3 35 55 35 54 16 66
-10 6 -23 27 -30 46 -9 29 -8 40 6 68 9 18 24 40 33 48 9 8 17 22 19 30 2 8
28 52 58 97 30 44 54 86 54 92 0 8 -105 11 -359 11 l-359 0 -103 -177z"/>
<path d="M3792 7064 c-12 -25 -27 -42 -32 -39 -6 3 -7 -1 -4 -10 4 -8 0 -22
-7 -31 -11 -14 -14 -13 -26 8 l-14 23 6 -23 c4 -13 1 -29 -5 -37 -9 -11 -9
-15 -1 -15 6 0 11 5 11 12 0 6 3 9 6 6 3 -4 0 -16 -6 -28 -9 -16 -14 -19 -20
-11 -5 9 -9 8 -13 -4 -4 -9 -3 -13 3 -10 15 9 12 -1 -11 -48 -27 -54 -28 -54
-40 -37 -8 12 -9 10 -4 -6 6 -22 -137 -314 -227 -466 l-40 -67 -55 -7 -55 -7
-27 -58 c-14 -32 -29 -58 -32 -59 -12 0 -104 81 -102 90 2 5 -4 7 -13 3 -13
-5 -13 -8 3 -27 41 -49 118 -126 127 -126 6 0 -6 16 -25 37 l-34 36 32 -22
c17 -12 42 -38 54 -59 12 -20 45 -66 72 -102 27 -36 36 -51 21 -34 -47 51 -92
105 -93 110 0 2 -5 12 -10 22 -9 15 -10 14 -8 -5 2 -13 14 -35 28 -49 l24 -27
-25 13 c-30 15 -41 31 -35 47 4 13 -10 26 -39 37 -18 6 -18 5 -1 -20 9 -14 15
-28 12 -30 -4 -4 -21 19 -95 127 -21 30 -43 54 -50 51 -7 -2 -9 -9 -6 -14 4
-6 3 -8 -2 -5 -6 3 -16 2 -24 -4 -13 -7 -13 -9 0 -9 13 0 13 -1 0 -10 -21 -14
-30 -12 -30 5 0 8 20 25 45 37 25 12 45 24 45 28 0 10 -124 89 -195 124 -83
41 -257 140 -235 134 8 -3 21 1 28 9 11 10 17 8 35 -12 23 -27 87 -51 87 -34
0 6 5 7 10 4 6 -4 8 -10 5 -15 -3 -4 3 -14 13 -21 15 -13 16 -12 3 4 -7 9 -9
17 -3 17 11 0 30 -21 30 -33 0 -5 4 -12 8 -15 4 -4 4 -1 0 6 -12 21 2 14 64
-34 36 -27 67 -44 76 -40 9 3 12 2 9 -4 -9 -14 46 -58 119 -97 66 -36 70 -38
61 -23 -3 5 -1 19 6 31 6 12 11 37 11 55 0 101 -123 148 -191 73 l-27 -29 -94
69 c-52 38 -98 67 -102 64 -5 -2 -8 0 -8 5 0 11 -89 82 -102 82 -4 0 -16 -9
-26 -20 -16 -19 -25 -20 -122 -15 -219 12 -320 13 -326 3 -10 -15 0 -19 103
-39 54 -11 107 -22 118 -26 14 -4 -29 -22 -139 -59 -122 -41 -162 -51 -169
-41 -6 9 -8 9 -5 -2 2 -8 -37 -55 -88 -105 -92 -91 -269 -294 -262 -301 2 -2
55 57 117 131 63 73 116 134 119 134 3 0 -2 -8 -10 -17 -8 -10 -61 -73 -117
-141 -56 -67 -106 -120 -111 -117 -9 6 -45 -45 -42 -61 1 -6 -8 -19 -20 -30
l-23 -19 20 25 c18 22 18 23 1 10 -10 -8 -55 -61 -99 -117 -44 -56 -83 -100
-88 -97 -5 3 -6 -2 -2 -11 5 -14 10 -12 30 12 l25 28 -22 -33 c-12 -18 -25
-30 -29 -27 -4 2 -43 -4 -87 -14 -43 -10 -110 -24 -149 -31 -38 -7 -95 -19
-125 -28 -65 -18 -100 -25 -100 -18 0 3 31 20 68 39 38 19 90 49 117 66 26 17
52 28 58 24 6 -4 7 -1 2 7 -6 10 -4 12 9 7 9 -4 14 -3 11 2 -3 5 3 12 13 15
15 5 138 114 200 178 7 7 69 70 137 141 69 70 125 132 125 137 0 5 -15 -1 -34
-13 -18 -12 -31 -26 -28 -31 3 -5 -3 -6 -14 -2 -10 4 -15 4 -11 0 11 -12 -13
-33 -31 -27 -13 4 -14 3 -4 -5 11 -7 5 -17 -27 -43 -22 -19 -88 -80 -147 -137
-58 -56 -110 -99 -116 -96 -5 4 -4 -4 3 -17 11 -22 11 -23 -4 -11 -14 12 -16
11 -12 -5 2 -11 0 -24 -3 -30 -7 -9 -199 -23 -410 -28 -51 -2 -96 -5 -99 -8
-2 -3 14 -25 36 -50 22 -24 37 -48 33 -52 -4 -5 -1 -5 6 -1 6 4 12 2 12 -4 0
-6 4 -9 8 -6 5 3 22 -9 38 -26 16 -16 65 -57 109 -89 44 -33 95 -71 114 -86
l34 -26 -124 -43 c-68 -23 -176 -60 -239 -82 -134 -46 -170 -56 -170 -44 0 14
88 85 144 115 59 32 59 32 -108 -25 -69 -24 -126 -46 -126 -50 0 -4 18 -17 40
-28 52 -27 57 -42 29 -81 -13 -18 -16 -28 -8 -23 7 5 17 9 21 9 3 0 10 4 15 9
5 5 3 6 -4 2 -7 -4 -13 -2 -13 4 0 6 6 13 14 16 8 3 12 12 10 19 -4 10 12 15
63 20 199 21 186 18 208 51 27 43 45 53 158 85 88 26 99 27 115 13 16 -13 17
-22 8 -71 -9 -50 -13 -57 -44 -70 -19 -8 -41 -12 -49 -9 -8 3 -12 2 -9 -2 6
-10 -213 -86 -221 -78 -4 3 -14 -1 -23 -9 -10 -9 -21 -15 -26 -14 -5 1 -22 -4
-39 -11 -16 -7 -42 -13 -56 -14 -28 -1 -36 -26 -9 -26 9 0 50 11 90 25 l73 25
-48 -47 c-26 -27 -59 -65 -73 -86 -25 -37 -27 -38 -69 -32 -28 4 -47 2 -56 -7
-14 -12 -9 -44 22 -165 6 -22 5 -38 -5 -52 -8 -10 -11 -26 -8 -35 3 -9 1 -16
-5 -16 -6 0 -10 -3 -9 -7 0 -5 -2 -16 -7 -26 -9 -21 -4 -29 12 -19 6 4 13 23
15 42 2 25 15 47 47 79 82 81 155 89 246 29 l48 -32 21 30 c57 78 148 178 264
288 70 67 126 125 124 129 -1 5 2 6 8 2 5 -3 13 1 16 9 13 34 311 270 424 336
128 74 383 195 550 262 41 17 81 35 87 40 18 15 5 30 -19 22 -13 -4 -18 -2
-14 4 4 7 -8 14 -29 18 -25 4 -35 11 -31 20 7 19 -8 17 -57 -7 -54 -28 -267
-152 -332 -194 -27 -18 -87 -54 -132 -80 l-83 -47 -35 22 c-19 12 -35 25 -35
28 0 4 24 18 53 32 332 154 616 283 634 287 29 7 76 -5 68 -17 -7 -11 100 -44
114 -36 14 9 42 -5 35 -16 -4 -6 2 -7 16 -3 24 8 112 -13 105 -25 -2 -4 35
-18 83 -30 82 -22 135 -42 209 -76 17 -9 38 -16 45 -18 8 -1 29 -11 48 -22 48
-28 152 -75 157 -71 2 2 -26 17 -61 33 -54 24 -64 32 -60 50 4 15 -2 23 -22
32 -14 7 -24 15 -20 19 3 3 67 -31 142 -76 74 -44 142 -81 150 -81 8 0 25 -10
37 -23 12 -12 34 -28 50 -35 15 -6 27 -18 27 -25 0 -8 9 -22 19 -32 20 -17 20
-17 1 21 -24 47 -20 53 14 19 22 -22 24 -29 14 -50 -10 -22 -8 -30 12 -57 22
-30 13 -30 -23 0 -9 8 -19 13 -22 10 -3 -3 37 -33 89 -67 130 -85 129 -83 62
-126 -61 -39 -75 -43 -55 -17 13 15 12 16 -3 3 -10 -7 -16 -17 -13 -21 6 -9
-43 -55 -51 -48 -3 3 5 16 18 28 13 12 16 19 7 15 -12 -4 -25 17 -57 96 -23
56 -40 104 -37 107 2 3 17 -3 32 -13 l28 -18 -19 21 c-10 12 -19 38 -20 59 -1
37 -3 39 -76 75 -258 126 -496 224 -691 283 -246 76 -249 76 -246 56 1 -11
-38 -53 -108 -115 -101 -90 -104 -92 -30 -20 44 43 69 70 55 59 -60 -46 -178
-169 -173 -179 3 -6 2 -8 -2 -3 -11 9 -66 -43 -59 -55 3 -5 0 -7 -8 -6 -7 2
-12 -3 -10 -10 1 -8 -2 -11 -6 -8 -12 7 -44 -28 -35 -38 5 -4 4 -6 -2 -5 -11
4 -97 -76 -89 -83 2 -3 -41 -49 -96 -103 -54 -54 -96 -103 -93 -108 3 -6 2 -8
-3 -5 -5 3 -17 -3 -26 -14 -10 -10 -15 -18 -12 -18 4 0 -33 -37 -80 -82 -48
-45 -85 -87 -82 -93 2 -7 -9 -25 -25 -41 -16 -15 -29 -24 -29 -20 0 5 -7 3
-15 -4 -8 -7 -12 -17 -8 -23 3 -5 2 -7 -4 -4 -18 11 -208 -166 -198 -184 4 -5
-1 -6 -9 -3 -9 3 -16 2 -16 -4 0 -6 -22 -27 -50 -47 -27 -20 -49 -41 -47 -48
1 -6 -7 -11 -18 -12 -11 0 -19 -6 -17 -13 1 -8 -2 -11 -7 -8 -9 6 -39 -23 -33
-31 2 -3 0 -8 -4 -11 -4 -4 -4 -1 0 6 11 18 -9 15 -25 -5 -12 -15 -12 -16 1
-8 9 5 8 0 -4 -13 -20 -23 -32 -29 -21 -11 4 5 -14 -10 -40 -36 -26 -25 -51
-42 -56 -39 -5 3 -8 0 -7 -7 2 -6 -3 -14 -11 -17 -9 -3 -11 0 -6 9 5 8 -6 1
-23 -15 -37 -34 -43 -49 -9 -20 12 10 -5 -8 -38 -41 -54 -54 -62 -59 -77 -46
-16 13 -15 17 12 55 27 39 57 132 45 144 -2 3 -23 -3 -45 -13 -22 -10 -38 -20
-36 -22 2 -3 14 0 25 7 27 14 27 -1 1 -25 -12 -10 -30 -34 -41 -52 -21 -33
-21 -34 -3 -55 18 -20 17 -20 -15 2 -18 13 -36 32 -39 42 -2 10 -9 15 -15 11
-7 -4 -8 0 -3 13 6 15 5 17 -5 7 -15 -15 -78 -17 -80 -3 -1 6 -3 15 -4 20 -1
6 -3 42 -4 81 0 38 -5 68 -9 65 -5 -3 -16 19 -25 48 -18 57 -21 83 -6 51 8
-18 9 -18 5 4 -5 23 10 59 29 73 6 5 5 8 -3 8 -7 0 -17 11 -24 25 -6 13 -15
22 -19 19 -14 -8 -10 -34 4 -34 18 0 19 -39 1 -57 -10 -11 -14 -11 -14 -2 0
21 -13 3 -93 -126 -151 -245 -260 -421 -277 -445 -9 -14 -27 -44 -40 -67 -22
-41 -24 -42 -37 -23 -17 24 -27 25 -47 5 -20 -20 -10 -44 20 -51 l25 -6 -24
-32 c-13 -17 -59 -91 -102 -163 -43 -73 -82 -133 -87 -133 -4 0 -8 -101 -8
-225 0 -124 3 -225 8 -225 4 0 18 7 30 16 12 8 26 13 31 9 5 -3 13 0 17 6 5 8
3 9 -6 4 -9 -5 -11 -4 -6 4 4 7 17 9 29 6 15 -4 18 -3 9 3 -17 12 11 37 33 28
8 -3 14 0 12 6 -1 6 21 25 49 42 28 17 113 72 190 122 76 51 199 128 273 172
110 67 137 80 153 71 32 -17 31 -35 -4 -91 -19 -29 -47 -78 -64 -108 -29 -55
-43 -72 -54 -65 -3 2 -6 -5 -6 -16 0 -10 4 -19 9 -19 5 0 6 -7 3 -16 -3 -8 -2
-12 4 -9 8 5 40 -43 41 -62 0 -5 7 -16 16 -25 15 -17 10 -58 -7 -58 -5 0 -7
-6 -4 -13 7 -18 -175 -259 -188 -251 -7 4 -8 2 -4 -5 12 -19 -54 -92 -103
-113 -79 -34 -176 -6 -112 33 15 9 47 35 72 58 24 22 52 41 62 41 27 0 58 19
90 54 16 17 36 31 45 31 10 0 16 7 14 17 -3 17 69 116 110 151 20 17 20 17 -8
17 -16 0 -40 -9 -54 -20 -14 -11 -31 -20 -37 -20 -7 0 -13 -5 -13 -11 0 -6 -7
-8 -16 -5 -8 3 -13 2 -10 -3 3 -4 -12 -17 -33 -29 -21 -12 -44 -29 -51 -37
-15 -18 -35 -20 -24 -3 4 7 3 8 -5 4 -6 -4 -9 -10 -7 -14 5 -9 -255 -205 -274
-207 -9 0 -22 -5 -30 -10 -8 -5 -20 -10 -27 -11 -16 -3 -83 -57 -83 -68 0 -5
8 -2 18 6 47 41 63 53 66 48 2 -3 12 2 23 10 10 8 9 6 -3 -5 -13 -11 -57 -45
-98 -75 -73 -54 -93 -84 -61 -96 8 -4 15 -10 15 -15 0 -4 -6 -6 -14 -3 -11 4
-14 -4 -12 -35 1 -22 6 -44 11 -48 4 -5 5 -2 0 6 -6 10 -4 12 5 6 10 -6 10
-11 -3 -20 -13 -10 -17 -29 -17 -88 l0 -77 28 10 c25 9 26 9 8 -5 -11 -8 -23
-15 -28 -15 -4 0 -7 -20 -6 -45 0 -25 4 -45 9 -45 5 0 9 -9 9 -20 0 -11 -4
-20 -8 -20 -5 0 -9 -36 -11 -80 -1 -66 1 -80 14 -80 8 0 15 5 15 10 0 6 5 10
11 10 6 0 28 14 49 30 44 35 53 36 71 12 11 -14 11 -15 -1 -5 -18 16 -25 16
-42 1 -7 -7 -33 -26 -58 -43 -25 -16 -48 -34 -52 -40 -10 -12 -10 -795 -1
-795 6 0 103 58 193 115 83 53 297 183 319 195 13 6 21 7 17 2 -7 -12 -436
-278 -495 -307 l-40 -20 -1 -127 c0 -71 2 -128 3 -128 2 0 29 9 59 19 31 11
90 27 132 36 68 15 75 19 59 31 -10 7 -16 14 -13 15 3 0 14 2 26 3 11 1 80 37
154 80 127 74 159 86 129 50 -15 -19 -16 -19 60 2 18 5 22 4 17 -5 -5 -7 -1
-18 10 -25 16 -13 15 -15 -15 -30 -25 -13 -36 -15 -46 -6 -11 9 -23 7 -52 -7
-70 -33 -143 -81 -131 -85 20 -7 264 10 326 22 82 16 88 18 74 32 -18 18 -14
52 10 83 19 25 26 27 67 22 25 -3 54 -9 64 -12 14 -6 17 -1 17 28 0 20 6 42
13 49 17 18 47 66 47 75 0 4 -19 -12 -42 -34 -148 -145 -365 -89 -418 108 -28
105 19 208 121 264 45 24 65 29 124 29 66 0 75 -2 130 -39 47 -31 65 -51 85
-92 16 -34 31 -53 43 -53 9 0 17 -4 17 -9 0 -5 13 -23 29 -40 27 -29 32 -61
11 -61 -12 0 5 -77 24 -104 17 -27 57 -43 77 -30 24 15 2 -15 -81 -108 -23
-26 -45 -46 -49 -43 -4 2 -63 -14 -130 -36 -68 -21 -130 -39 -137 -39 -17 0
-18 -17 -1 -23 6 -3 2 -6 -11 -6 -13 -1 -20 3 -17 9 3 6 1 10 -4 10 -6 0 -11
-4 -11 -8 0 -4 -24 -9 -53 -10 -28 -1 -76 -7 -104 -13 l-53 -10 32 -39 c31
-37 34 -38 86 -33 104 9 309 74 296 94 -2 4 4 6 13 5 10 0 18 6 18 14 0 8 5
15 10 15 19 0 36 17 31 31 -3 9 0 11 11 7 11 -4 14 -2 9 5 -4 7 -2 12 3 12 17
0 13 -19 -9 -50 -11 -16 -17 -30 -13 -33 5 -2 3 -2 -4 -1 -7 2 -21 -12 -32
-30 -11 -18 -52 -71 -91 -117 -38 -46 -68 -90 -65 -97 3 -7 1 -10 -4 -7 -5 3
-12 1 -16 -5 -3 -5 6 -15 21 -20 28 -11 64 -5 76 14 4 6 10 7 15 3 4 -5 -1
-25 -12 -45 -22 -42 -61 -52 -105 -29 -24 12 -27 10 -73 -51 l-48 -65 23 -26
c13 -14 37 -45 52 -68 32 -49 52 -59 65 -35 6 9 11 12 11 6 0 -5 -6 -16 -13
-23 -10 -10 -9 -15 6 -25 9 -7 17 -21 17 -31 0 -14 4 -13 20 8 21 26 26 42 12
33 -5 -3 -9 1 -9 9 0 10 4 12 13 5 30 -26 94 44 94 101 0 13 5 19 13 16 9 -3
23 29 47 107 29 92 98 291 125 358 10 26 -35 10 -62 -21 -16 -18 -23 -21 -23
-11 0 14 137 304 160 340 56 86 59 130 9 155 -25 14 -27 18 -19 41 13 33 -5
73 -40 92 -25 12 -66 11 -104 -4 -15 -6 -10 5 17 41 51 66 51 114 1 161 -19
19 -40 34 -45 34 -5 0 -9 4 -9 8 0 10 140 96 146 89 2 -2 8 -27 14 -55 5 -29
16 -65 24 -81 15 -28 15 -30 -21 -58 -20 -15 -42 -31 -47 -35 -8 -5 -7 -11 0
-18 9 -9 26 -4 65 18 53 29 55 29 84 12 49 -27 103 -30 170 -8 58 19 61 19 92
2 25 -13 33 -24 33 -44 0 -14 -5 -31 -11 -37 -7 -7 -12 -34 -13 -61 -1 -28 -4
-48 -8 -45 -5 2 -8 -3 -8 -11 0 -8 -7 -16 -15 -18 -10 -2 -6 -7 11 -15 22 -10
24 -10 14 3 -7 8 -8 14 -2 14 18 0 28 -24 31 -75 3 -60 -26 -136 -67 -173 -15
-13 -20 -21 -12 -17 28 15 62 50 72 75 19 46 26 103 16 129 -6 18 -6 27 2 29
7 3 11 51 10 150 -1 145 6 228 20 237 20 12 22 -108 5 -355 -3 -53 -2 -60 6
-40 13 30 18 740 6 840 l-7 65 24 -58 c13 -32 33 -68 43 -80 30 -36 103 -118
171 -192 303 -328 327 -356 328 -388 1 -16 6 -32 11 -36 5 -3 18 -22 29 -41
10 -19 21 -37 24 -40 27 -27 60 -90 54 -106 -5 -16 -4 -16 5 -4 10 13 12 13
22 0 8 -12 9 -9 4 13 -10 49 -16 167 -8 167 4 0 23 -26 42 -58 19 -31 47 -73
63 -93 15 -20 28 -41 28 -47 0 -5 7 -15 15 -22 9 -8 13 -21 10 -34 -5 -15 -4
-17 3 -7 8 11 12 10 21 -6 5 -11 7 -24 3 -28 -4 -5 -2 -6 4 -2 5 3 21 -14 34
-39 14 -24 28 -44 32 -44 4 0 4 -8 1 -17 -6 -16 -5 -17 11 -3 17 13 20 12 34
-9 9 -12 28 -39 44 -58 l28 -36 11 32 c14 40 22 35 10 -6 -8 -29 -5 -37 52
-105 33 -40 77 -91 96 -113 20 -22 81 -95 135 -162 l99 -121 40 14 c25 9 44
11 50 5 9 -9 5 -11 -69 -30 -42 -11 -79 -41 -59 -48 6 -2 66 -39 133 -83 95
-63 122 -85 122 -103 0 -12 7 -105 15 -207 8 -102 15 -191 15 -197 0 -10 140
-13 665 -13 l665 0 0 30 c0 27 -4 31 -62 48 -35 11 -90 25 -123 32 -33 6 -110
25 -170 41 -61 16 -134 33 -163 39 -41 7 -66 21 -110 59 -128 110 -434 341
-444 335 -7 -5 -8 -2 -3 6 6 10 4 12 -9 7 -9 -4 -15 -3 -11 2 8 13 -85 82 -99
74 -6 -3 -8 -3 -4 2 4 4 -27 45 -70 89 -77 82 -199 252 -188 263 7 8 6 9 40
-50 15 -26 60 -87 100 -135 108 -128 262 -240 652 -472 69 -41 158 -99 198
-128 75 -55 99 -60 138 -25 15 14 30 10 155 -32 76 -25 146 -49 156 -52 16 -5
17 12 17 266 0 149 -2 271 -5 271 -3 0 -23 -12 -44 -28 -21 -15 -49 -34 -61
-42 -13 -8 -35 -24 -49 -36 -14 -11 -42 -31 -61 -44 -27 -18 -22 -12 19 28 31
30 51 58 48 66 -7 17 40 63 73 71 14 3 37 17 53 30 l27 24 0 211 c0 126 -4
210 -9 210 -6 0 -31 -30 -57 -68 -85 -121 -128 -175 -132 -164 -2 6 13 32 32
58 38 50 42 59 26 69 -12 8 -43 -26 -65 -72 -18 -38 -18 -38 -75 -18 -143 50
-287 -34 -305 -179 -6 -47 -1 -73 28 -146 4 -8 0 -23 -7 -33 -13 -17 -19 -15
-107 34 -212 117 -305 179 -366 241 -70 72 -133 148 -133 163 0 6 19 22 43 37
l44 28 38 -20 c47 -24 105 -26 145 -5 41 21 81 78 87 122 4 30 13 44 42 63 20
13 39 25 44 26 4 1 10 2 13 3 4 0 0 9 -7 19 -13 15 -12 16 4 3 15 -12 22 -10
58 13 22 15 61 39 87 53 26 14 49 29 52 32 3 3 19 13 35 21 17 9 30 21 30 27
0 6 4 15 9 20 6 5 6 2 1 -6 -13 -22 9 -11 164 83 78 47 135 87 129 90 -7 3 -4
4 7 1 24 -6 112 49 96 59 -6 4 -19 3 -29 -3 -15 -8 -18 -6 -18 14 l0 23 36
-17 c35 -18 60 -18 60 1 0 5 -10 7 -22 4 l-23 -6 23 12 c22 11 22 15 21 180 0
92 -3 168 -5 168 -7 0 -189 -110 -267 -162 -32 -21 -60 -38 -63 -38 -2 0 -66
-40 -141 -90 -74 -49 -141 -91 -147 -93 -6 -2 -8 -7 -4 -11 3 -4 15 -3 26 3
16 9 20 8 18 -4 -3 -23 -11 -26 -41 -15 -23 9 -31 8 -44 -6 -9 -9 -11 -14 -6
-11 6 3 11 -3 11 -13 0 -16 -3 -17 -16 -6 -13 11 -19 11 -42 -4 -16 -9 -25
-20 -20 -25 4 -4 2 -5 -5 -1 -14 8 -95 -42 -88 -54 3 -4 -3 -7 -13 -6 -9 0
-16 -5 -14 -12 1 -8 -2 -11 -8 -7 -10 6 -120 -71 -120 -85 0 -5 3 -10 8 -13 4
-2 1 -2 -5 -1 -8 2 -13 -7 -13 -22 0 -17 4 -23 13 -18 9 5 9 4 0 -6 -23 -25
-26 -1 -12 86 l14 87 68 40 c49 29 64 43 55 50 -9 6 -7 7 6 3 13 -4 37 5 70
27 28 18 82 51 119 72 60 35 66 41 51 52 -23 17 -37 17 -28 1 4 -7 3 -9 -1 -5
-17 15 -13 37 7 48 11 6 22 8 25 6 2 -3 -5 -8 -18 -12 -17 -6 -19 -9 -8 -16
19 -12 32 -11 24 1 -3 6 1 7 10 3 13 -5 14 -7 3 -14 -9 -6 -6 -8 9 -6 12 2 26
7 30 12 5 4 2 5 -4 1 -25 -14 -12 9 18 33 36 28 52 20 18 -9 -21 -18 -21 -20
-3 -11 11 5 26 17 33 25 8 9 17 14 20 11 4 -2 8 3 8 11 0 10 -4 11 -11 4 -14
-14 -26 -13 -26 4 0 8 14 20 30 28 33 14 39 28 13 29 -15 0 -15 2 2 9 30 13
38 12 31 -5 -3 -9 1 -18 9 -22 12 -4 13 -8 4 -20 -7 -7 33 13 87 46 54 34 121
72 147 86 26 14 45 30 42 34 -2 5 1 8 8 7 18 -2 137 67 137 80 0 15 -28 26
-32 13 -2 -6 -11 -4 -21 4 -18 12 -17 14 7 25 18 8 25 8 23 0 -1 -6 4 -13 11
-15 7 -3 12 5 12 21 0 14 -5 26 -10 26 -6 0 -41 -17 -78 -39 -37 -21 -120 -69
-186 -107 -95 -54 -115 -70 -103 -78 12 -10 12 -13 0 -25 -12 -11 -14 -10 -11
5 2 12 -3 19 -12 19 -8 0 -15 -5 -15 -12 0 -6 -4 -15 -9 -20 -6 -5 -6 -2 -1 6
13 22 -13 9 -182 -90 -84 -50 -150 -95 -147 -100 3 -5 10 -7 15 -4 5 4 9 1 9
-4 0 -14 -13 -14 -27 0 -8 8 -39 -6 -111 -50 -55 -34 -102 -61 -104 -61 -5 0
-4 26 11 263 6 106 10 129 26 140 14 11 16 18 7 33 -11 18 -12 17 -13 -6 -1
-14 -6 18 -9 70 -4 52 -11 105 -15 118 -4 13 -4 22 1 20 12 -4 134 46 176 72
36 22 53 26 43 10 -11 -18 27 -11 41 8 11 14 16 15 31 4 31 -21 42 -24 61 -17
13 6 10 10 -18 17 -19 6 -48 10 -65 10 -28 1 -26 2 20 23 29 13 54 19 59 14 6
-5 17 -9 25 -9 13 1 12 4 -4 16 -19 15 -18 16 12 9 18 -3 40 -2 50 4 15 9 12
10 -11 5 -26 -6 -28 -5 -15 8 14 16 56 9 52 -9 -1 -4 20 -9 45 -10 l47 -1 -40
10 c-22 6 -48 17 -58 23 -18 12 -17 13 5 20 12 4 58 24 101 46 43 21 93 41
112 45 19 3 33 10 30 14 -3 5 -1 12 5 15 6 4 9 3 8 -2 -2 -4 12 -29 30 -55 33
-49 38 -64 22 -70 -5 -1 -10 -17 -12 -34 -2 -25 -6 -30 -23 -27 -11 2 -14 1
-7 -3 20 -9 14 -26 -8 -19 -11 3 -20 2 -20 -3 0 -5 -9 -12 -20 -15 -11 -3 -20
-10 -20 -17 0 -6 3 -9 8 -7 4 2 53 26 109 52 56 27 99 53 96 58 -4 6 -1 7 6 2
7 -4 30 1 52 10 l39 18 0 104 c0 98 -1 103 -21 103 -16 0 -19 -3 -11 -13 8
-10 6 -13 -8 -13 -10 0 -16 4 -14 8 8 12 -4 10 -37 -8 -58 -30 -52 -7 10 36
l62 44 -24 22 c-32 29 -107 65 -120 57 -6 -3 -7 -1 -3 5 4 7 12 12 18 12 6 0
20 8 30 17 18 16 18 16 12 0 -3 -9 -10 -17 -16 -17 -5 0 -6 -5 -3 -11 5 -6 11
-4 19 7 7 9 18 14 24 10 6 -3 13 -2 17 4 3 5 -1 10 -10 10 -9 0 -13 5 -9 11 3
6 15 8 26 6 14 -4 18 -1 14 8 -3 10 0 12 11 8 11 -4 14 -2 9 5 -4 7 -1 12 8
12 14 0 16 17 16 114 0 82 -4 116 -12 119 -10 4 -10 6 0 6 9 1 12 41 12 166 0
91 -2 165 -5 165 -14 0 -73 -36 -117 -71 -101 -80 -233 -78 -351 4 -14 10 -19
9 -27 -3 -21 -33 -75 -99 -83 -100 -11 0 13 42 32 58 9 8 10 11 4 7 -10 -5
-11 0 -3 20 15 40 11 117 -8 146 -9 15 -28 42 -41 60 -20 28 -21 31 -4 16 20
-17 20 -17 27 33 4 29 12 50 19 50 8 0 7 3 -2 9 -13 8 -13 12 0 27 9 11 9 15
2 10 -8 -4 -13 -2 -13 5 0 6 8 9 20 6 34 -9 23 16 -36 84 -31 35 -60 73 -65
84 -13 26 64 -58 98 -107 14 -21 29 -38 32 -38 4 0 23 22 44 48 20 27 46 57
58 68 l22 19 -19 -34 c-10 -18 -38 -55 -62 -82 -25 -27 -40 -54 -36 -60 3 -6
2 -14 -4 -18 -7 -4 -3 -12 11 -20 20 -13 21 -13 9 1 -11 14 -6 22 35 57 48 41
134 81 177 81 88 0 201 -75 231 -154 18 -46 18 -152 0 -191 -8 -17 -5 -17 22
5 l32 25 0 307 c1 236 -2 307 -11 311 -10 4 -10 6 0 6 9 1 12 81 12 366 0 387
-1 394 -45 345 -16 -18 -17 -22 -3 -37 15 -17 10 -26 -56 -120 -39 -55 -77
-109 -84 -120 -16 -23 -12 -8 26 82 45 109 46 114 23 123 -18 6 -14 15 50 112
39 58 75 107 80 108 13 5 12 972 -1 972 -6 0 -29 -28 -51 -62 -22 -35 -45 -62
-49 -61 -5 2 -7 -3 -4 -11 3 -8 1 -17 -4 -20 -5 -3 -12 4 -15 16 -4 12 -9 19
-12 16 -4 -3 -1 -16 5 -28 13 -25 4 -42 -11 -20 -7 11 -8 7 -3 -12 4 -18 2
-28 -6 -28 -6 0 -8 5 -4 12 4 7 3 8 -5 4 -6 -4 -9 -11 -6 -17 3 -5 -17 -43
-45 -85 -48 -74 -71 -93 -29 -25 11 18 18 36 15 39 -3 3 2 10 11 17 19 14 14
38 -5 26 -7 -4 -14 -19 -15 -32 0 -13 -4 -26 -8 -29 -4 -3 -26 -52 -49 -109
-71 -173 -154 -308 -186 -302 -10 2 -33 4 -51 5 -18 1 -37 6 -42 11 -14 15
-137 295 -144 330 l-6 30 14 -31 c8 -17 41 -89 73 -160 32 -71 62 -137 65
-146 13 -37 25 -15 29 53 2 38 8 73 14 77 5 4 19 24 31 44 l22 37 -30 -1 c-16
-1 -29 -5 -29 -10 0 -13 -30 -9 -30 5 0 6 -17 28 -36 47 -54 54 -120 143 -109
147 59 19 100 57 172 155 129 176 253 338 260 338 3 0 -1 -9 -8 -19 -51 -71
-233 -324 -259 -358 -17 -24 -26 -43 -19 -43 6 0 50 18 96 40 47 22 89 40 94
40 12 0 52 63 149 230 146 254 213 365 222 368 10 4 11 142 1 141 -5 0 -39
-37 -77 -82 -203 -243 -259 -307 -264 -302 -3 2 -12 -1 -20 -8 -13 -10 -15 -9
-8 8 5 14 4 17 -4 9 -6 -6 -8 -18 -4 -28 5 -14 9 -14 23 -4 14 12 14 11 3 -4
-8 -9 -19 -15 -25 -13 -7 3 -25 -18 -42 -45 -16 -27 -33 -50 -37 -50 -4 0 -18
-16 -31 -35 -13 -19 -27 -32 -32 -27 -5 4 -5 1 -1 -6 6 -11 11 -11 24 0 16 12
16 11 2 -7 -8 -11 -36 -44 -63 -74 -26 -29 -73 -87 -103 -128 -31 -40 -58 -72
-60 -70 -8 8 43 87 51 80 4 -5 5 -3 2 3 -4 7 -1 26 6 43 11 25 16 29 27 18 12
-10 12 -9 2 4 -13 18 -11 28 26 109 101 226 220 476 354 743 88 176 158 320
156 322 -2 2 -25 -23 -51 -56 -27 -33 -52 -57 -57 -54 -6 3 -8 0 -5 -7 3 -7
-6 -25 -20 -40 -14 -15 -25 -30 -25 -32 0 -3 -29 -41 -64 -83 -36 -43 -80 -99
-98 -124 -119 -167 -207 -271 -221 -262 -6 4 -8 0 -4 -9 7 -20 -34 -33 -45
-15 -6 9 -8 9 -8 -1 0 -7 -5 -10 -10 -7 -6 4 -8 11 -5 16 4 5 2 9 -4 9 -5 0
11 35 36 78 25 42 60 102 76 132 17 30 45 78 62 105 18 28 47 77 65 110 18 33
36 62 39 65 4 3 12 16 19 30 7 14 28 50 47 80 19 30 35 58 35 63 0 4 -132 7
-293 7 l-293 0 -22 -46z m-22 -234 c0 -5 -4 -10 -10 -10 -5 0 -10 5 -10 10 0
6 5 10 10 10 6 0 10 -4 10 -10z m50 0 c0 -5 -4 -10 -10 -10 -5 0 -10 5 -10 10
0 6 5 10 10 10 6 0 10 -4 10 -10z m200 -140 c0 -5 -5 -10 -11 -10 -5 0 -7 5
-4 10 3 6 8 10 11 10 2 0 4 -4 4 -10z m-1250 -197 c0 -7 -61 31 -73 46 -7 8 7
2 31 -14 23 -15 42 -30 42 -32z m1 -79 c200 -106 272 -151 267 -167 -3 -7 -33
-23 -68 -37 l-63 -25 49 -22 c62 -28 60 -28 73 5 6 15 9 18 7 7 -2 -11 -7 -27
-10 -36 -5 -11 14 -28 71 -64 43 -26 98 -61 123 -77 24 -16 50 -26 58 -23 7 2
11 1 8 -4 -3 -4 8 -18 25 -30 16 -12 27 -26 24 -32 -6 -8 -1 -10 33 -13 13 -1
90 -96 79 -96 -3 0 -18 17 -34 38 -15 20 -32 38 -38 39 -5 1 -79 29 -163 62
-208 83 -249 93 -346 85 -51 -4 -76 -3 -73 4 4 5 20 12 37 16 17 3 29 10 26
14 -8 14 -75 -10 -78 -28 -2 -9 -16 -15 -38 -17 -19 -1 -71 -8 -115 -17 -203
-38 -522 -96 -533 -96 -24 0 -11 21 71 112 45 51 117 134 160 185 l77 91 -77
-5 c-145 -9 -226 -21 -234 -35 -7 -10 -9 -9 -9 5 0 26 30 33 203 47 157 13
158 13 188 -9 36 -27 213 -72 254 -65 24 4 27 3 15 -6 -12 -8 -8 -9 15 -4 17
4 31 8 33 9 1 1 -26 10 -60 19 -35 9 -99 27 -143 40 l-80 24 -17 58 c-25 90
-26 89 50 112 37 11 68 21 68 21 1 1 75 -38 165 -85z m1384 -6 c14 -6 25 -17
25 -25 0 -8 -35 -66 -77 -131 -43 -64 -80 -121 -82 -127 -2 -5 -17 -23 -32
-40 -21 -22 -31 -27 -40 -18 -8 8 -1 31 31 90 58 108 145 263 147 263 1 0 14
-5 28 -12z m321 -136 c-17 -16 -18 -16 -5 5 7 12 15 20 18 17 3 -2 -3 -12 -13
-22z m-1901 -2 c13 -5 14 -9 5 -9 -8 0 -24 4 -35 9 -13 5 -14 9 -5 9 8 0 24
-4 35 -9z m52 -16 c-3 -3 -12 -4 -19 -1 -8 3 -5 6 6 6 11 1 17 -2 13 -5z m40
-10 c-3 -3 -12 -4 -19 -1 -8 3 -5 6 6 6 11 1 17 -2 13 -5z m40 -10 c-3 -3 -12
-4 -19 -1 -8 3 -5 6 6 6 11 1 17 -2 13 -5z m444 -61 c13 -16 12 -17 -3 -4 -10
7 -18 15 -18 17 0 8 8 3 21 -13z m546 -238 c48 -41 91 -75 94 -75 3 0 4 11 1
25 -2 14 0 25 4 25 5 0 43 -23 84 -50 41 -27 78 -50 81 -50 3 0 12 15 21 33
15 32 15 34 -8 54 -13 12 -24 30 -24 40 0 53 68 75 101 34 22 -27 16 -45 -28
-88 -40 -40 -49 -73 -33 -114 7 -16 10 -32 7 -35 -3 -3 -8 4 -12 15 -3 12 -10
21 -15 21 -4 0 -33 20 -64 46 -31 25 -56 42 -56 38 0 -4 -8 0 -18 9 -15 14
-19 15 -19 2 0 -8 4 -12 9 -9 4 3 8 -2 8 -10 0 -21 -43 -21 -60 -1 -7 9 -51
45 -97 81 -46 36 -81 70 -78 75 4 5 8 9 10 9 2 0 43 -34 92 -75z m-1937 2 c0
-2 -10 -12 -22 -23 l-23 -19 19 23 c18 21 26 27 26 19z m2229 -227 c26 -103
24 -115 -8 -52 -11 20 -34 53 -51 72 -17 19 -29 29 -25 23 3 -7 4 -13 1 -13
-3 0 -13 15 -22 33 -16 30 -16 31 0 18 14 -12 16 -12 10 3 -3 9 -15 21 -25 27
-11 5 -19 14 -19 19 0 5 29 -14 65 -42 49 -39 68 -61 74 -88z m-2365 60 c-31
-38 -58 -70 -61 -70 -6 0 51 75 86 113 45 49 33 28 -25 -43z m786 41 c0 -5 6
-11 13 -14 6 -2 4 -3 -5 -2 -10 2 -21 -1 -24 -6 -3 -5 -17 -9 -32 -9 l-27 0
30 20 c33 22 45 25 45 11z m690 -16 c0 -2 -13 -11 -30 -20 -38 -19 -40 -11 -2
9 31 17 32 18 32 11z m-1220 -10 c0 -2 -20 -18 -45 -35 -25 -17 -45 -29 -45
-26 0 4 80 64 88 66 1 0 2 -2 2 -5z m700 -29 c0 -2 -8 -10 -17 -17 -16 -13
-17 -12 -4 4 13 16 21 21 21 13z m401 -59 c35 -18 98 -48 139 -66 187 -86 303
-141 299 -145 -5 -5 -225 18 -319 34 -153 25 -335 38 -353 27 -10 -7 -38 -50
-62 -97 -28 -52 -36 -75 -23 -59 77 89 99 119 93 129 -4 6 7 10 28 10 54 0
478 -57 563 -75 11 -2 21 -11 21 -20 0 -21 -20 -20 -319 16 l-259 30 -49 -41
c-27 -23 -48 -47 -47 -53 1 -6 -5 -12 -13 -12 -23 -2 -50 -16 -50 -27 0 -13
39 0 75 26 17 11 33 22 38 22 4 1 10 2 15 3 4 0 19 12 34 26 l27 25 68 -32
c37 -18 74 -41 81 -50 7 -10 21 -18 30 -18 12 1 10 5 -8 15 -42 24 -13 16 44
-12 30 -15 52 -31 49 -37 -4 -5 1 -7 10 -3 10 3 17 2 17 -4 0 -6 4 -8 9 -5 12
8 112 -34 106 -44 -3 -5 9 -12 27 -15 18 -4 80 -27 138 -50 58 -24 117 -45
130 -47 14 -2 24 -8 23 -13 -1 -6 8 -11 20 -11 31 -2 162 -68 160 -79 -1 -6
-10 -11 -20 -13 -15 -3 -16 -1 -3 7 17 12 1 15 -25 5 -13 -5 -14 -9 -3 -15 8
-6 -1 -7 -22 -3 -24 4 -31 3 -21 -4 11 -8 9 -11 -8 -17 -11 -3 -31 -3 -43 0
-16 4 -19 3 -10 -3 9 -6 -4 -14 -45 -25 -59 -17 -71 -16 -169 14 -17 5 -40 9
-52 9 -12 0 -22 5 -22 11 0 7 -16 32 -36 55 -33 41 -39 44 -83 44 -27 0 -72
-5 -102 -10 -47 -9 -64 -7 -146 17 -51 16 -93 30 -93 33 0 3 57 36 126 75
l126 69 -64 12 c-35 7 -98 15 -141 19 l-78 7 12 -26 c13 -27 35 -37 25 -11 -4
11 2 15 25 15 21 0 28 -4 23 -12 -6 -10 -5 -10 8 0 10 8 31 10 62 6 44 -6 46
-8 30 -25 -9 -10 -23 -15 -32 -13 -14 5 -14 4 1 -6 20 -13 14 -30 -11 -30 -15
0 -15 2 -2 10 8 5 12 10 8 10 -3 0 -15 3 -25 6 -15 5 -16 4 -3 -6 13 -10 11
-11 -8 -7 -12 3 -20 1 -17 -3 3 -5 -1 -11 -7 -14 -7 -3 -1 -4 15 -1 36 7 34 1
-9 -26 -39 -24 -53 -17 -54 26 0 11 -5 27 -10 35 -7 10 -8 1 -4 -30 4 -25 11
-48 16 -51 12 -8 -18 -21 -56 -24 -21 -2 -25 0 -15 7 10 7 8 8 -9 5 -12 -3
-20 -1 -17 3 7 12 -72 33 -87 24 -7 -5 -8 -3 -3 6 6 10 3 12 -13 8 -12 -4 -20
-2 -17 2 6 10 -124 55 -132 46 -4 -3 0 -6 7 -6 7 0 11 -2 8 -5 -9 -9 -38 7
-38 21 0 8 56 70 125 139 69 69 125 129 125 134 0 9 194 191 203 191 2 0 33
-15 68 -33z m-1982 -21 c8 -10 9 -16 1 -21 -6 -4 -9 -1 -8 5 2 7 -8 14 -21 16
-34 6 -39 14 -9 14 14 0 31 -6 37 -14z m34 -11 c-3 -9 -8 -14 -10 -11 -3 3 -2
9 2 15 9 16 15 13 8 -4z m-23 -46 c0 -6 -4 -7 -10 -4 -5 3 -10 11 -10 16 0 6
5 7 10 4 6 -3 10 -11 10 -16z m12 -31 c-6 -6 -12 -5 -17 3 -5 8 -4 10 3 5 8
-5 12 2 13 21 2 25 2 26 6 4 3 -13 0 -28 -5 -33z m3508 29 c0 -22 -48 -89
-149 -206 -7 -9 -6 -5 3 9 9 14 25 42 36 63 12 22 25 35 32 31 7 -4 8 -3 4 4
-9 14 23 64 35 56 5 -3 8 -1 7 4 -3 9 22 52 29 52 2 0 3 -6 3 -13z m-2210 -61
c0 -2 -8 -10 -17 -17 -16 -13 -17 -12 -4 4 13 16 21 21 21 13z m1575 -68 c17
-17 25 -28 19 -25 -15 8 -96 -62 -88 -75 4 -7 2 -8 -4 -4 -7 4 -12 1 -12 -6 0
-7 92 -105 205 -218 113 -112 205 -207 205 -212 0 -17 -17 -7 -55 33 -53 55
-281 259 -290 259 -3 0 -3 -6 1 -12 4 -8 3 -10 -2 -5 -5 5 -9 12 -9 16 0 3
-16 27 -37 51 l-36 45 5 90 c3 50 11 93 17 97 17 12 48 -1 81 -34z m92 6 c10
-27 -14 -40 -37 -19 -11 10 -17 22 -14 26 9 15 44 10 51 -7z m-2187 -19 c0 -9
-35 -32 -82 -56 -93 -47 -351 -194 -371 -212 -17 -16 -79 -49 -83 -44 -2 1 6
34 17 71 17 56 19 74 9 94 -14 32 2 44 45 36 17 -3 70 6 125 20 52 14 107 26
121 26 15 0 67 18 115 40 101 45 104 46 104 25z m2894 -28 c-8 -21 -23 -22
-31 -1 -7 18 17 38 30 25 4 -4 5 -15 1 -24z m-1899 4 c7 -12 -44 -53 -57 -45
-5 3 1 17 13 30 24 26 35 29 44 15z m238 -18 c-7 -2 -21 -2 -30 0 -10 3 -4 5
12 5 17 0 24 -2 18 -5z m965 -12 c3 -10 0 -10 -17 -2 -25 14 -27 20 -4 17 9
-2 19 -8 21 -15z m-875 2 c-7 -2 -21 -2 -30 0 -10 3 -4 5 12 5 17 0 24 -2 18
-5z m294 -9 c-3 -3 -12 -4 -19 -1 -8 3 -5 6 6 6 11 1 17 -2 13 -5z m-110 -10
c-3 -3 -12 -4 -19 -1 -8 3 -5 6 6 6 11 1 17 -2 13 -5z m261 -57 c5 -24 -15
-21 -21 4 -3 13 -1 19 6 16 7 -2 13 -11 15 -20z m162 8 c0 -9 -6 -12 -15 -9
-8 4 -12 10 -9 15 8 14 24 10 24 -6z m383 -7 c18 -12 63 -47 102 -77 80 -64
129 -93 141 -83 5 4 3 0 -3 -8 -8 -10 -9 -21 -3 -30 19 -30 11 -42 -14 -22
-78 61 -135 116 -129 125 4 6 1 7 -6 2 -15 -9 -73 43 -64 58 3 6 1 7 -6 3 -13
-9 -37 8 -52 36 -13 24 -4 23 34 -4z m276 -27 c9 -6 12 -19 8 -40 -5 -22 -3
-31 7 -31 24 0 40 -28 26 -45 -10 -12 -16 -10 -38 18 -15 18 -33 37 -40 42
-11 9 -11 16 -1 38 13 29 17 31 38 18z m-1379 -51 c-45 -25 -62 -25 -30 0 14
11 34 19 45 19 15 0 11 -5 -15 -19z m1432 -137 c-57 -89 -68 -118 -52 -138 6
-8 10 -26 7 -42 -4 -27 -4 -27 -6 5 -2 61 -8 52 -95 -158 -13 -32 -14 -33 -15
-9 -1 14 5 31 12 38 10 11 10 13 0 7 -9 -5 -13 0 -14 16 0 22 -1 22 -10 3 -6
-14 -7 -8 -3 23 4 27 2 42 -5 43 -31 4 -36 6 -35 14 1 6 4 26 7 45 3 19 3 29
0 21 -3 -8 -11 3 -20 28 -8 24 -12 45 -10 47 9 10 137 16 137 7 0 -5 -13 -46
-30 -90 -25 -69 -27 -82 -14 -87 8 -3 12 -2 9 4 -6 10 81 191 97 201 5 3 9 9
8 13 -1 4 0 10 3 14 2 4 2 1 1 -5 -6 -23 4 -14 36 37 18 28 35 48 38 46 3 -3
-18 -40 -46 -83z m-589 64 c3 -8 1 -20 -4 -28 -6 -10 -9 -7 -9 14 0 29 5 35
13 14z m176 -112 c50 -41 91 -78 91 -80 0 -9 -34 1 -85 24 -54 24 -105 37
-105 27 0 -4 12 -29 26 -57 14 -28 24 -53 21 -55 -2 -2 -18 -7 -35 -10 l-32
-6 0 86 0 86 30 0 c35 0 38 10 9 36 -12 10 -30 33 -41 49 l-20 30 25 -27 c14
-15 66 -61 116 -103z m-2789 82 c-8 -8 -64 -56 -125 -108 -60 -52 -139 -122
-175 -155 -138 -131 -182 -166 -192 -156 -7 7 8 38 45 95 31 47 62 91 70 99 7
7 12 19 9 27 -3 8 0 11 5 8 5 -3 20 9 33 26 48 61 81 82 202 129 132 50 151
56 128 35z m1378 -41 c89 -32 139 -57 194 -97 124 -91 260 -204 323 -269 33
-34 81 -77 107 -96 35 -26 54 -51 78 -102 19 -42 54 -91 93 -132 34 -35 49
-53 32 -38 -16 14 -71 51 -121 81 l-91 55 -64 -8 c-35 -5 -89 -13 -119 -19
-31 -6 -67 -11 -80 -10 -74 3 -198 -25 -187 -42 1 -2 0 -3 -2 -2 -2 2 -11 -3
-19 -10 -13 -10 -14 -8 -7 13 l7 25 -27 -25 c-21 -19 -27 -21 -22 -7 4 9 3 17
-2 17 -8 0 -41 -104 -41 -129 0 -7 -22 -47 -50 -88 -29 -43 -59 -104 -71 -145
-21 -67 -21 -78 -10 -183 7 -61 21 -145 31 -186 11 -41 20 -79 20 -85 0 -7
-17 -15 -37 -19 -21 -4 -59 -16 -85 -27 l-48 -20 0 -102 c1 -115 12 -139 71
-149 18 -3 66 -17 104 -31 106 -39 174 -31 201 23 15 30 4 70 -47 178 -36 77
-39 89 -39 171 0 100 -8 131 -58 216 -38 65 -50 122 -33 155 17 31 26 26 40
-19 6 -22 16 -40 20 -40 12 0 41 46 41 65 0 9 4 14 8 11 4 -3 8 6 8 19 -1 31
65 136 82 130 7 -3 11 -1 8 4 -15 23 105 104 209 141 28 10 68 25 90 34 66 25
112 21 146 -14 l30 -30 -20 -29 c-12 -16 -21 -41 -21 -56 0 -22 -3 -26 -17
-20 -67 29 -148 55 -169 55 -14 0 -37 -11 -52 -25 -18 -17 -22 -25 -12 -25 8
0 49 -11 90 -24 73 -23 74 -24 30 -22 -40 1 -46 -2 -57 -26 -7 -16 -19 -28
-28 -28 -10 0 -13 5 -9 13 4 6 -1 5 -12 -4 -10 -9 -42 -24 -70 -33 -95 -31
-224 -122 -224 -157 0 -8 13 -10 37 -6 35 6 57 23 47 38 -6 11 67 59 88 59 12
0 18 -8 18 -24 0 -14 11 -38 24 -53 21 -25 31 -28 78 -27 70 2 118 13 112 28
-2 6 0 17 5 25 8 12 12 12 25 2 9 -8 16 -22 16 -32 0 -10 8 -20 18 -23 9 -3
23 -16 31 -28 13 -22 13 -22 -10 -6 -28 18 -46 6 -42 -27 2 -16 1 -16 -7 3 -5
13 -14 20 -20 17 -5 -3 -10 0 -10 7 0 8 -3 9 -8 3 -4 -6 -17 -10 -30 -9 -18 1
-21 -2 -16 -15 4 -9 10 -32 14 -51 7 -35 7 -35 14 -8 5 16 3 35 -5 50 -11 21
-11 22 4 9 14 -11 17 -11 18 0 1 20 38 -62 39 -86 1 -19 1 -19 15 -1 7 10 19
15 25 11 7 -4 25 3 42 15 l30 22 30 -31 c17 -17 49 -36 71 -43 51 -15 107 -70
107 -104 0 -20 -41 -68 -177 -208 -191 -195 -224 -241 -244 -354 -12 -62 -20
-72 -61 -72 -16 0 -28 -2 -28 -4 0 -2 9 -23 20 -47 43 -95 18 -155 -60 -143
l-43 7 6 -29 c2 -16 11 -43 18 -61 11 -28 11 -43 -6 -108 -19 -79 -36 -105
-86 -130 -16 -9 -67 -40 -113 -70 -97 -63 -143 -76 -246 -68 -71 5 -77 4 -106
-20 -17 -15 -43 -31 -58 -37 -66 -25 -233 0 -386 57 -143 53 -290 139 -272
158 4 5 1 5 -6 1 -16 -10 -92 69 -152 156 -39 55 -95 174 -120 251 -6 20 -16
37 -21 37 -6 0 -8 4 -5 8 3 5 -2 26 -10 48 l-15 39 6 -43 c5 -44 -15 -102 -36
-102 -6 0 -7 5 -3 12 4 7 3 8 -5 4 -6 -4 -9 -11 -6 -16 6 -10 -28 -21 -69 -24
-24 -1 -24 -2 -10 -24 8 -12 19 -34 24 -48 9 -22 8 -25 -4 -21 -9 4 -18 2 -21
-4 -4 -6 -20 -1 -41 11 -18 12 -38 19 -42 16 -11 -7 -55 52 -47 63 3 5 1 11
-4 13 -10 4 -68 116 -88 172 -28 81 -73 267 -73 304 0 27 7 45 21 57 l20 19
-22 17 c-21 15 -21 19 -10 84 12 69 33 104 146 239 22 27 52 63 66 80 14 17
42 56 62 88 20 31 46 59 59 63 13 4 31 14 41 23 28 25 21 -3 -20 -76 -117
-215 -153 -277 -213 -367 -36 -55 -81 -124 -99 -153 l-34 -53 28 -29 c26 -27
27 -33 21 -87 l-7 -58 25 43 c48 81 109 162 123 162 18 0 5 -23 -85 -158 -42
-62 -68 -111 -65 -121 2 -10 21 -35 41 -57 20 -22 31 -33 24 -24 -16 22 -15
30 2 30 10 0 16 13 18 35 3 35 4 34 53 -54 52 -92 65 -109 41 -50 -28 69 -27
96 1 130 24 28 31 31 66 26 22 -3 44 -11 48 -19 5 -7 9 -9 9 -4 0 5 -14 30
-30 56 -26 41 -30 54 -24 90 4 23 13 47 20 54 10 10 10 44 3 160 -11 163 -3
219 48 326 14 30 34 87 43 125 10 39 22 69 28 68 5 -1 24 27 42 62 41 80 154
195 231 234 30 15 83 34 117 41 48 11 58 16 46 23 -15 9 -14 11 7 23 16 9 19
14 9 15 -8 0 3 7 25 14 22 8 34 14 26 14 -8 1 1 13 20 29 59 47 472 476 563
585 32 37 59 67 60 67 2 0 58 -20 124 -44z m1762 21 c0 -11 -1 -18 -3 -16 -1
2 -8 11 -15 20 -9 13 -9 16 3 16 8 0 15 -9 15 -20z m-1139 -89 c28 -34 30 -41
14 -36 -11 2 -64 16 -117 29 -54 13 -98 27 -98 31 0 6 33 10 137 16 26 2 37
-5 64 -40z m1259 3 c0 -6 -4 -13 -10 -16 -5 -3 -10 1 -10 9 0 9 5 16 10 16 6
0 10 -4 10 -9z m-443 -97 c-3 -3 -12 -4 -19 -1 -8 3 -5 6 6 6 11 1 17 -2 13
-5z m-40 -10 c-3 -3 -12 -4 -19 -1 -8 3 -5 6 6 6 11 1 17 -2 13 -5z m195 -119
c30 -44 58 -89 62 -100 6 -17 13 -9 43 48 26 49 39 65 48 57 6 -5 16 -6 20 -2
5 4 5 1 1 -6 -4 -7 -2 -21 5 -30 12 -15 11 -14 -7 1 -19 16 -22 16 -28 2 -3
-9 -10 -14 -15 -11 -5 3 -7 -2 -4 -12 2 -10 -4 -29 -15 -42 -19 -24 -19 -24 4
-68 48 -89 22 -175 -66 -219 -56 -29 -115 -32 -105 -5 25 66 6 143 -47 187
l-31 26 20 27 c10 15 33 34 51 42 24 11 30 20 26 35 -4 18 -4 18 6 3 11 -17
55 -26 48 -10 -13 30 -91 163 -99 167 -5 4 -9 11 -9 18 0 17 32 -19 92 -108z
m-123 86 c-8 -11 -43 -61 -78 -112 -35 -50 -72 -94 -82 -96 -14 -4 -19 -18
-22 -62 -2 -31 -3 -21 -2 21 l3 78 46 45 c61 59 61 78 0 55 -15 -6 -28 -9 -30
-7 -2 2 27 16 65 31 38 15 77 36 86 46 23 26 32 26 14 1z m318 -68 c-2 -16 -4
-5 -4 22 0 28 2 40 4 28 2 -13 2 -35 0 -50z m10 -55 c-3 -8 -6 -5 -6 6 -1 11
2 17 5 13 3 -3 4 -12 1 -19z m-2847 -51 c0 -2 -17 -19 -37 -38 l-38 -34 34 38
c33 34 41 42 41 34z m3084 -69 c-34 -66 -65 -109 -74 -103 -6 3 -22 -6 -36
-22 l-27 -28 24 31 c34 46 124 154 127 154 1 0 -5 -15 -14 -32z m-3204 -81 c0
-2 -10 -12 -22 -23 l-23 -19 19 23 c18 21 26 27 26 19z m2327 -129 c-3 -7 -5
-2 -5 12 0 14 2 19 5 13 2 -7 2 -19 0 -25z m615 -6 c-27 -39 -32 -58 -19 -71
17 -17 23 -14 37 19 7 16 19 35 27 41 12 11 13 5 7 -37 -6 -45 -23 -94 -24
-68 0 6 -20 14 -45 17 -58 6 -64 12 -35 35 22 18 22 19 6 53 -14 28 -14 30 -1
15 15 -20 15 -20 30 0 8 10 15 23 15 27 0 5 5 5 10 2 7 -4 3 -16 -8 -33z m115
6 c-3 -8 -6 -5 -6 6 -1 11 2 17 5 13 3 -3 4 -12 1 -19z m-167 -47 c0 -21 -16
-2 -24 29 -7 24 -6 24 8 6 9 -11 16 -27 16 -35z m-3824 -96 c-5 -14 -9 -15
-21 -5 -12 10 -13 16 -4 27 15 18 34 1 25 -22z m3474 20 c7 -8 9 -15 5 -15 -4
0 -2 -7 5 -15 7 -8 10 -15 7 -15 -3 0 -15 14 -27 30 -22 30 -13 43 10 15z
m-325 -228 c-9 -34 -20 -66 -25 -71 -18 -18 -39 5 -54 61 -9 32 -28 83 -43
113 -15 30 -29 59 -31 63 -3 5 21 -8 51 -28 31 -20 60 -34 66 -31 9 6 17 27
38 101 17 61 15 -142 -2 -208z m-2873 166 c-5 -76 -10 -83 -11 -15 0 34 2 62
7 62 4 0 6 -21 4 -47z m3318 -27 c-13 -13 -35 9 -45 44 -7 25 -7 25 24 -4 21
-20 28 -33 21 -40z m-3246 22 c22 -17 45 -35 50 -39 5 -4 -6 -7 -25 -6 -19 1
-44 -2 -56 -6 -20 -7 -23 -5 -23 17 0 14 5 28 10 31 8 5 7 11 -1 21 -20 24 1
16 45 -18z m-354 -62 c-7 -9 -17 -16 -22 -16 -16 0 -21 30 -7 46 11 13 14 13
27 0 13 -12 13 -18 2 -30z m4092 20 c7 4 8 2 4 -4 -4 -7 -1 -13 8 -13 9 -1 21
-2 28 -3 6 0 13 -8 15 -16 4 -13 3 -13 -6 0 -7 10 -11 11 -11 3 0 -21 39 -36
56 -22 23 19 16 2 -11 -25 -14 -14 -25 -31 -25 -37 0 -7 7 -4 15 7 14 19 14
19 16 -1 3 -40 -3 -61 -28 -101 -39 -62 -106 -98 -202 -109 -14 -2 -36 -6 -47
-10 -16 -5 -23 -2 -27 15 -3 12 -10 19 -16 15 -6 -3 -9 0 -5 8 3 8 -2 20 -11
27 -19 15 -20 54 -2 72 8 7 13 23 11 34 -3 20 58 99 68 89 3 -3 9 10 12 29 5
24 11 33 21 30 8 -3 11 -12 8 -21 -4 -11 -2 -14 6 -9 6 4 10 15 9 24 -2 11 5
16 24 16 15 1 32 6 39 13 9 9 15 8 26 -3 8 -8 19 -11 25 -8z m-512 -21 c19
-19 32 -35 29 -35 -3 0 -20 16 -39 35 -19 19 -32 35 -29 35 3 0 20 -16 39 -35z
m174 9 c17 4 18 0 13 -38 -3 -23 -9 -51 -13 -61 -4 -11 11 0 33 25 23 25 43
43 46 40 3 -3 -11 -47 -31 -98 l-37 -93 -11 56 c-14 68 -28 97 -71 144 -18 20
-33 39 -33 43 0 4 19 0 43 -8 23 -8 50 -13 61 -10z m-44 -106 c17 -21 25 -35
18 -33 -7 3 -34 34 -60 70 -52 70 -67 102 -18 39 17 -22 44 -56 60 -76z
m-3415 62 c4 -6 23 -18 43 -27 29 -12 33 -17 18 -20 -10 -3 -22 1 -27 8 -6 10
-12 9 -28 -5 -21 -19 -21 -19 -21 2 0 11 -3 27 -6 36 -7 17 11 22 21 6z m2318
-25 c-21 -29 -43 -32 -43 -7 0 25 9 32 37 32 24 0 24 0 6 -25z m72 5 c10 -17
-14 -38 -35 -33 -20 5 -26 23 -13 36 10 11 41 8 48 -3z m744 -119 c34 -94 37
-108 16 -71 -13 22 -55 143 -55 158 0 14 11 -10 39 -87z m-3095 64 c-4 -8 -13
-15 -21 -15 -13 0 -13 3 -3 15 7 8 16 15 21 15 5 0 6 -7 3 -15z m180 -5 l46
-21 -41 -82 c-23 -45 -62 -113 -88 -151 -25 -38 -55 -83 -65 -99 -11 -17 -22
-25 -24 -19 -2 7 -10 12 -18 12 -18 0 -17 19 1 100 18 75 113 280 131 280 6 0
32 -9 58 -20z m146 -40 c-1 -3 -10 -16 -21 -29 l-20 -25 -26 27 c-15 14 -27
34 -28 44 -1 17 1 18 47 4 26 -8 48 -18 48 -21z m2150 15 c-7 -8 -16 -15 -21
-15 -5 0 -1 8 9 18 20 22 31 19 12 -3z m906 -12 c16 -16 16 -18 1 -21 -19 -4
-57 15 -57 28 0 16 37 11 56 -7z m-110 -14 c0 -13 -3 -15 -13 -7 -7 6 -13 14
-13 18 0 3 6 7 13 7 7 0 13 -8 13 -18z m-1118 -1 c-6 -18 -28 -21 -28 -4 0 9
7 16 16 16 9 0 14 -5 12 -12z m432 -33 c0 -6 -56 -35 -67 -35 -4 1 8 9 27 20
39 22 40 22 40 15z m-2312 -30 c-3 -3 -9 2 -12 12 -6 14 -5 15 5 6 7 -7 10
-15 7 -18z m1927 0 l40 -7 -38 -14 c-34 -12 -43 -12 -69 2 -24 12 -28 18 -17
25 8 5 21 7 29 5 8 -2 33 -7 55 -11z m1175 -10 c0 -2 -10 -9 -22 -15 -22 -11
-22 -10 -4 4 21 17 26 19 26 11z m-651 -61 c48 -40 37 -64 -29 -64 -26 0 -165
53 -183 70 -4 4 26 5 67 2 53 -3 76 -1 76 7 0 20 38 12 69 -15z m190 -76 c18
-96 15 -220 -8 -343 -11 -55 -22 -133 -25 -173 -8 -97 -39 -236 -78 -347 -105
-304 -204 -415 -501 -561 -110 -54 -142 -66 -155 -57 -35 22 -17 38 76 69 50
18 103 39 117 48 13 9 30 16 38 16 26 0 153 98 203 156 107 125 125 168 189
459 15 66 30 127 35 135 4 8 10 29 14 45 l8 30 -29 -27 c-28 -27 -50 -38 -39
-19 3 4 8 39 12 77 9 101 19 157 47 269 14 55 35 144 47 198 12 53 25 97 29
97 3 0 13 -33 20 -72z m259 17 c-3 -3 -9 2 -12 12 -6 14 -5 15 5 6 7 -7 10
-15 7 -18z m42 -65 c6 -11 8 -20 6 -20 -3 0 -10 9 -16 20 -6 11 -8 20 -6 20 3
0 10 -9 16 -20z m-68 -114 c37 -56 99 -128 106 -121 3 3 -6 18 -20 33 -15 15
-38 50 -52 77 l-26 50 26 -30 c44 -51 95 -135 89 -145 -3 -6 -1 -10 4 -10 6 0
11 -5 11 -12 0 -7 -23 10 -51 37 -53 52 -99 114 -124 168 -16 33 -10 26 37
-47z m-3418 18 c26 -10 20 -61 -9 -80 -23 -15 -27 -15 -50 0 -58 38 -8 106 59
80z m3246 -270 c25 -58 25 -60 -5 -89 -39 -40 -49 -33 -41 32 7 61 16 103 22
103 2 0 12 -21 24 -46z m-70 -110 c-17 -79 -24 -60 -9 22 7 38 15 61 17 52 2
-10 -2 -43 -8 -74z m366 13 c-17 -55 -12 -62 9 -12 14 34 15 35 32 18 10 -10
31 -28 46 -40 l27 -21 -57 -55 c-113 -106 -203 -178 -215 -171 -6 4 -8 3 -4
-4 3 -6 -8 -22 -26 -35 -62 -46 -63 -41 -3 24 33 36 68 79 77 95 l17 30 -35 0
c-19 0 -41 7 -50 16 -21 21 -7 68 43 141 l35 52 -5 -45 c-3 -25 -9 -61 -12
-80 -4 -24 -2 -41 8 -55 14 -18 17 -15 49 50 19 39 44 93 54 120 23 60 30 39
10 -28z m-3248 35 c3 -18 -2 -22 -22 -22 -28 0 -34 18 -14 38 17 17 32 10 36
-16z m3027 -130 c8 -22 -18 -45 -44 -37 -25 8 -28 40 -4 53 21 12 39 6 48 -16z
m-3024 -38 c11 -14 10 -18 -5 -29 -10 -8 -24 -11 -32 -8 -17 6 -18 40 -1 46
20 9 24 8 38 -9z m-216 -70 c-11 -8 -29 -22 -40 -32 -11 -9 -24 -15 -28 -14
-5 1 -6 -2 -3 -7 3 -5 -1 -14 -10 -21 -12 -10 -17 -11 -27 -1 -9 10 -9 12 3 9
8 -2 14 2 15 9 0 7 20 26 45 42 46 30 81 42 45 15z m3885 -39 c0 -2 -10 -9
-22 -15 -22 -11 -22 -10 -4 4 21 17 26 19 26 11z m-3540 -121 c7 -23 9 -51 5
-64 -5 -15 -4 -20 3 -16 7 4 10 -3 9 -16 -2 -23 -45 -67 -101 -103 -17 -11
-40 -27 -50 -37 -10 -9 -23 -15 -28 -12 -4 3 -8 1 -8 -5 0 -6 -24 -29 -52 -52
-36 -28 -53 -49 -53 -65 -1 -12 2 -21 7 -18 14 9 20 -63 8 -105 -13 -50 -72
-115 -124 -136 -62 -26 -127 -16 -173 27 l-22 21 37 28 c58 45 88 72 72 63 -8
-4 -33 -21 -55 -39 -65 -51 -72 -51 -85 5 -8 34 -9 59 -1 86 11 41 6 58 -15
50 -8 -3 -24 -2 -37 3 -14 6 -31 5 -43 -1 -33 -18 -2 7 83 66 47 33 88 54 94
50 8 -4 9 -3 5 4 -4 7 24 33 67 64 41 29 111 81 155 116 80 61 100 73 86 50
-4 -7 -3 -8 5 -4 6 4 9 11 6 16 -6 10 61 70 80 70 8 0 18 6 22 13 4 7 22 22
38 34 l30 22 11 -37 c6 -20 17 -55 24 -78z m-480 56 c0 -5 -2 -10 -4 -10 -3 0
-8 5 -11 10 -3 6 -1 10 4 10 6 0 11 -4 11 -10z m170 6 c0 -3 -4 -8 -10 -11 -5
-3 -10 -1 -10 4 0 6 5 11 10 11 6 0 10 -2 10 -4z m-235 -69 c-11 -6 -21 -5
-28 3 -9 8 -7 9 7 4 13 -5 17 -4 12 4 -5 8 -2 10 10 5 15 -6 15 -7 -1 -16z
m3386 8 c-1 -15 -24 -12 -29 3 -3 9 2 13 12 10 10 -1 17 -7 17 -13z m-3434
-29 c-4 -10 -13 -13 -23 -9 -11 4 -15 3 -10 -5 3 -6 1 -14 -5 -18 -8 -5 -9 -3
-4 6 6 10 3 12 -11 7 -18 -7 -18 -6 1 8 11 9 25 13 32 11 7 -3 13 2 13 11 0 9
3 14 6 10 4 -3 4 -13 1 -21z m-57 -42 c0 -8 -19 -13 -24 -6 -3 5 1 9 9 9 8 0
15 -2 15 -3z m-30 -17 c0 -2 -10 -12 -22 -23 l-23 -19 19 23 c18 21 26 27 26
19z m-40 -11 c0 -2 -8 -10 -17 -17 -16 -13 -17 -12 -4 4 13 16 21 21 21 13z
m4272 -27 c14 -8 23 -8 31 0 15 15 46 14 62 -3 12 -11 10 -15 -11 -25 -35 -16
-53 -13 -30 4 16 12 17 15 4 15 -21 0 -41 -26 -32 -42 5 -10 4 -11 -7 0 -19
17 -34 15 -19 -3 11 -13 10 -14 -6 -8 -10 4 -26 16 -35 27 -16 19 -16 21 0 33
20 15 18 15 43 2z m-4338 -27 c3 -5 -1 -9 -9 -9 -8 0 -12 4 -9 9 3 4 7 8 9 8
2 0 6 -4 9 -8z m101 -2 c3 -6 -1 -7 -9 -4 -18 7 -21 14 -7 14 6 0 13 -4 16
-10z m-22 -14 c16 -12 15 -14 -13 -26 -17 -7 -33 -10 -36 -8 -3 3 7 9 21 12
14 4 23 11 20 17 -4 5 -16 7 -28 4 -17 -5 -19 -4 -7 4 19 13 21 13 43 -3z
m4191 8 c9 -3 14 -10 11 -14 -3 -4 7 -11 23 -15 26 -6 26 -7 7 -21 -13 -9 -31
-12 -55 -8 -46 9 -53 13 -41 28 6 7 7 16 3 21 -4 4 4 4 17 0 16 -5 21 -4 17 4
-8 13 -4 14 18 5z m-3244 -25 c13 -23 14 -22 -18 -38 -20 -11 -28 -9 -58 14
-39 30 -46 45 -10 22 22 -15 24 -15 29 3 7 27 43 26 57 -1z m-1030 -4 c10 -12
9 -16 -4 -21 -9 -3 -14 -10 -11 -14 3 -5 0 -12 -6 -16 -7 -4 -9 -3 -5 4 3 6 2
13 -4 17 -16 10 -2 25 18 19 14 -5 14 -3 -2 10 -11 9 -15 16 -9 16 6 0 16 -7
23 -15z m-55 -25 c-3 -5 -12 -7 -21 -3 -9 3 -14 0 -12 -7 2 -7 -4 -15 -12 -17
-13 -4 -13 -3 0 6 8 6 11 11 5 11 -5 0 -1 7 9 15 19 15 41 11 31 -5z m4270
-10 c3 -5 2 -10 -4 -10 -5 0 -13 5 -16 10 -3 6 -2 10 4 10 5 0 13 -4 16 -10z
m-4287 -35 c17 1 32 1 32 0 0 -1 -12 -12 -27 -26 -15 -13 -21 -16 -14 -6 9 11
10 17 2 17 -18 0 -26 -4 -23 -13 1 -5 -2 -6 -8 -2 -6 3 -8 11 -5 16 4 5 -1 9
-10 9 -9 0 -13 5 -10 10 4 7 11 7 18 2 7 -5 27 -8 45 -7z m3704 -8 c11 -17 10
-57 -1 -57 -6 0 -13 5 -17 12 -5 7 -3 8 6 3 8 -5 11 -4 6 3 -4 6 -12 9 -19 7
-7 -3 -25 5 -40 17 l-28 23 43 2 c24 1 46 -4 50 -10z m793 -17 c-3 -5 -12 -10
-18 -10 -7 0 -6 4 3 10 19 12 23 12 15 0z m-73 -7 c-9 -4 -10 -8 -2 -18 7 -8
7 -15 1 -19 -11 -7 -66 12 -58 20 3 3 15 0 27 -6 12 -6 24 -9 27 -6 3 3 -2 9
-11 12 -14 5 -15 9 -4 15 7 5 18 8 23 8 6 0 4 -3 -3 -6z m-3346 -30 c-10 -10
-19 5 -10 18 6 11 8 11 12 0 2 -7 1 -15 -2 -18z m-1112 9 c3 -5 -11 -24 -31
-43 -21 -19 -31 -26 -24 -16 11 14 11 17 0 17 -11 0 -11 2 1 10 12 8 12 10 1
10 -8 0 -11 3 -8 6 4 4 13 1 21 -5 10 -8 16 -9 21 -1 3 5 0 10 -7 10 -9 0 -9
3 2 10 18 12 18 12 24 2z m4511 -10 c-3 -3 -11 0 -18 7 -9 10 -8 11 6 5 10 -3
15 -9 12 -12z m-4588 -37 c0 -8 -4 -12 -9 -9 -5 3 -6 10 -3 15 9 13 12 11 12
-6z m1328 -11 c9 -15 12 -23 6 -20 -11 7 -35 46 -28 46 3 0 12 -12 22 -26z
m-1100 -40 c-11 -8 -19 -20 -17 -25 1 -6 -2 -8 -8 -4 -19 12 -32 -6 -13 -20
15 -11 13 -12 -15 -9 -24 3 -31 0 -26 -9 4 -6 4 -9 -1 -5 -5 5 -22 -3 -39 -15
-43 -32 -66 -43 -36 -17 35 31 161 120 169 120 3 0 -3 -8 -14 -16z m3755 1 c0
-10 -10 -15 -27 -15 -36 -1 -68 -25 -68 -53 0 -16 -7 -22 -27 -24 -36 -2 -35
6 5 44 55 53 117 78 117 48z m-2355 -55 c10 -11 16 -20 13 -20 -3 0 -13 9 -23
20 -10 11 -16 20 -13 20 3 0 13 -9 23 -20z m153 -99 c121 -62 299 -121 437
-146 65 -12 67 -13 25 -14 -64 -1 -211 32 -307 69 -88 34 -235 117 -268 152
-13 14 -5 11 25 -9 25 -17 64 -40 88 -52z m2042 49 c0 -5 -7 -10 -15 -10 -8 0
-15 5 -15 10 0 6 7 10 15 10 8 0 15 -4 15 -10z m-3720 -13 c0 -2 -10 -12 -22
-23 l-23 -19 19 23 c18 21 26 27 26 19z m1547 -19 c-3 -8 -6 -5 -6 6 -1 11 2
17 5 13 3 -3 4 -12 1 -19z m1593 12 c0 -10 -39 -220 -61 -330 -6 -30 -18 -82
-27 -115 -11 -45 -16 -129 -19 -333 -5 -264 -5 -273 -23 -257 -15 13 -20 39
-25 130 -15 234 -12 243 -96 -292 -13 -78 -26 -140 -30 -137 -4 2 -5 -6 -2
-18 4 -17 3 -20 -6 -12 -9 8 -3 58 24 205 20 107 40 217 45 244 5 28 22 127
39 220 16 94 37 222 46 285 9 63 25 157 36 209 10 51 19 99 19 107 0 29 -31
12 -110 -61 -45 -41 -85 -75 -90 -75 -12 0 -18 34 -9 58 5 13 23 30 40 40 17
9 77 45 132 79 106 65 117 70 117 53z m-3114 -19 c0 -11 -5 -17 -13 -14 -17 6
-17 20 0 26 6 3 12 6 12 6 1 1 1 -7 1 -18z m3544 9 c0 -5 -5 -10 -11 -10 -5 0
-7 5 -4 10 3 6 8 10 11 10 2 0 4 -4 4 -10z m-3415 -42 c-10 -13 -14 -16 -11
-8 3 8 9 24 13 35 4 11 8 14 11 7 2 -6 -4 -22 -13 -34z m-32 -3 c-3 -9 -8 -14
-10 -11 -3 3 -2 9 2 15 9 16 15 13 8 -4z m-176 -1 c-3 -3 -12 -4 -19 -1 -8 3
-5 6 6 6 11 1 17 -2 13 -5z m153 -4 c0 -5 -7 -10 -16 -10 -8 0 -12 5 -9 10 3
6 10 10 16 10 5 0 9 -4 9 -10z m-15 -70 c-3 -5 -12 -10 -18 -10 -7 0 -6 4 3
10 19 12 23 12 15 0z m1085 -11 c-24 -19 -90 -57 -79 -46 8 10 94 67 99 67 3
0 -6 -9 -20 -21z m-1176 -40 c-10 -12 -32 -28 -49 -36 -28 -14 -27 -12 9 21
43 39 71 49 40 15z m3561 -21 c-2 -18 -7 -82 -10 -143 -3 -60 -8 -138 -10
-171 -5 -61 -5 -61 22 -61 38 0 77 -47 68 -82 -9 -38 -40 -64 -74 -64 -28 0
-31 -4 -31 -31 -1 -26 -8 -36 -48 -60 -26 -17 -95 -61 -154 -100 -98 -63 -107
-72 -101 -94 3 -14 6 -33 7 -42 1 -9 10 -29 20 -43 19 -25 21 -25 47 -10 16 9
25 21 22 26 -3 6 -1 7 4 4 6 -4 32 5 58 19 35 20 44 29 33 36 -10 7 -8 8 5 4
10 -3 35 5 58 20 23 14 42 24 44 22 1 -2 5 -17 8 -33 5 -26 1 -33 -24 -48 -18
-10 -27 -21 -23 -28 4 -7 3 -9 -3 -6 -9 5 -71 -32 -149 -88 -21 -15 -24 -13
-73 49 -28 36 -47 67 -42 70 4 3 -6 58 -24 123 -29 107 -45 186 -74 368 -5 36
-6 64 0 70 5 5 9 -2 10 -20 1 -31 4 -25 14 38 5 34 9 38 32 35 15 -2 28 2 30
9 3 7 -3 9 -16 6 -10 -3 -28 0 -38 6 -15 10 -14 10 9 5 23 -5 26 -3 21 15 -3
13 -1 21 7 21 7 0 10 -7 6 -15 -3 -8 -1 -15 5 -15 6 0 13 9 16 20 4 15 14 20
40 20 33 0 34 1 28 34 -8 39 5 52 35 34 25 -16 26 -38 3 -38 -15 0 -16 -2 -3
-10 9 -6 17 -5 22 3 5 9 10 9 20 -1 6 -6 19 -12 28 -11 13 0 13 1 0 6 -17 7
-50 42 -50 54 0 5 23 19 50 32 32 16 46 19 38 9 -11 -13 -9 -14 12 -7 33 10
37 14 22 24 -9 6 -3 12 20 22 18 7 39 19 46 26 8 7 18 11 23 8 5 -4 9 -1 9 4
0 6 2 11 5 11 2 0 2 -15 0 -32z m-3415 5 c0 -3 -6 -3 -12 0 -7 2 -22 0 -33 -5
-19 -9 -19 -8 -2 6 17 13 47 12 47 -1z m2203 10 c-7 -2 -19 -2 -25 0 -7 3 -2
5 12 5 14 0 19 -2 13 -5z m-2106 -35 c-3 -8 -6 -5 -6 6 -1 11 2 17 5 13 3 -3
4 -12 1 -19z m700 -4 c3 -8 -1 -22 -9 -30 -13 -14 -17 -14 -31 1 -9 8 -14 22
-11 30 8 20 43 19 51 -1z m168 -13 c0 -28 -25 -47 -49 -38 -21 8 -21 43 2 56
27 16 47 8 47 -18z m-1060 -1 c-3 -5 -11 -10 -16 -10 -6 0 -7 5 -4 10 3 6 11
10 16 10 6 0 7 -4 4 -10z m4500 -20 c3 -6 -1 -7 -9 -4 -18 7 -21 14 -7 14 6 0
13 -4 16 -10z m-4388 -36 c-3 -3 -12 -4 -19 -1 -8 3 -5 6 6 6 11 1 17 -2 13
-5z m4306 -16 c-19 -18 -26 -20 -45 -10 -22 11 -22 11 4 6 20 -4 30 -2 34 10
3 9 11 16 17 16 6 0 2 -10 -10 -22z m77 18 c0 -2 -6 -9 -14 -15 -11 -9 -16 -9
-22 0 -4 7 -3 9 4 5 6 -3 13 -2 17 4 6 10 15 14 15 6z m-4530 -21 c0 -2 -10
-9 -22 -15 -22 -11 -22 -10 -4 4 21 17 26 19 26 11z m1250 -129 c91 -109 92
-109 68 -122 -32 -18 -103 -17 -145 2 -22 11 -44 34 -63 67 -27 48 -28 51 -14
90 15 42 42 80 54 75 4 -2 49 -52 100 -112z m-655 94 c-3 -5 -12 -10 -18 -10
-7 0 -6 4 3 10 19 12 23 12 15 0z m2665 0 c0 -5 -2 -10 -4 -10 -3 0 -8 5 -11
10 -3 6 -1 10 4 10 6 0 11 -4 11 -10z m1165 1 c3 -5 1 -12 -5 -16 -5 -3 -10 1
-10 9 0 18 6 21 15 7z m-4430 -21 c-3 -5 -12 -10 -18 -10 -7 0 -6 4 3 10 19
12 23 12 15 0z m4400 0 c3 -6 -1 -7 -9 -4 -18 7 -21 14 -7 14 6 0 13 -4 16
-10z m-3665 -10 c-19 -12 -8 -22 24 -22 32 0 38 -27 11 -54 -23 -23 -158 -114
-169 -114 -5 0 -2 8 5 18 12 15 12 16 -1 6 -8 -7 -24 -14 -35 -17 -18 -4 -18
-5 3 -6 22 -1 33 -21 11 -21 -6 0 -22 -9 -37 -20 -31 -25 -44 -11 -31 34 5 17
9 44 9 61 0 23 7 34 30 47 17 9 30 24 30 33 0 9 9 15 24 15 14 0 28 5 31 10 9
14 65 38 90 39 16 1 17 -1 5 -9z m35 0 c3 -5 1 -10 -4 -10 -6 0 -11 5 -11 10
0 6 2 10 4 10 3 0 8 -4 11 -10z m3592 -5 c0 -8 -4 -12 -9 -9 -5 3 -6 10 -3 15
9 13 12 11 12 -6z m-3950 -1 c-3 -3 -12 -4 -19 -1 -8 3 -5 6 6 6 11 1 17 -2
13 -5z m3913 2 c0 -2 -8 -10 -17 -17 -16 -13 -17 -12 -4 4 13 16 21 21 21 13z
m-3970 -25 c5 -11 10 -22 10 -25 0 -11 -154 -126 -164 -123 -14 5 -19 42 -11
75 3 14 22 41 41 59 43 40 106 47 124 14z m-242 0 c23 -14 10 -46 -19 -49 -30
-4 -46 22 -28 44 13 16 28 17 47 5z m337 -8 c5 -13 -6 -28 -42 -58 -26 -21
-72 -63 -102 -92 -55 -54 -55 -54 -75 -34 -20 20 -20 20 9 43 16 13 65 53 109
91 44 37 83 67 87 67 4 0 10 -8 14 -17z m3815 -28 c-7 -8 -17 -15 -22 -15 -5
0 -2 7 6 16 9 8 13 21 10 27 -5 9 -3 8 6 0 11 -10 11 -15 0 -28z m-1137 -5
c-6 -23 -19 -26 -26 -6 -6 16 1 26 19 26 7 0 10 -8 7 -20z m-2640 -34 c14 -41
-3 -67 -59 -95 -56 -28 -154 -54 -154 -40 0 5 3 9 8 9 4 0 45 36 92 80 46 44
89 79 94 77 5 -2 14 -16 19 -31z m3742 6 c-3 -3 -11 0 -18 7 -9 10 -8 11 6 5
10 -3 15 -9 12 -12z m191 -15 c0 -17 -6 -22 -25 -23 -15 -1 -20 1 -13 3 6 3
10 9 7 14 -4 5 1 6 10 3 9 -4 15 -3 14 2 -2 12 0 24 4 24 2 0 3 -10 3 -23z
m-302 4 c3 -5 -1 -11 -9 -15 -8 -3 -17 0 -21 6 -4 7 -3 8 4 4 7 -4 12 -2 12 3
0 13 7 14 14 2z m-92 -48 c-10 -4 -10 -8 0 -21 12 -15 11 -16 -4 -4 -9 8 -23
11 -30 7 -7 -4 -4 1 6 9 11 9 25 16 30 15 6 0 5 -3 -2 -6z m285 -19 c-3 -3
-12 -4 -19 -1 -8 3 -5 6 6 6 11 1 17 -2 13 -5z m-3523 -23 c3 -5 -1 -14 -8
-20 -16 -13 -32 2 -21 19 8 12 22 13 29 1z m36 0 c0 -6 -4 -13 -10 -16 -5 -3
-10 1 -10 9 0 9 5 16 10 16 6 0 10 -4 10 -9z m3100 -21 c-12 -8 -12 -10 -1
-10 8 0 12 -3 8 -6 -9 -9 -28 6 -22 17 4 5 12 9 18 9 7 0 6 -4 -3 -10z m-10
-40 c0 -6 13 -8 32 -5 18 4 30 3 27 0 -10 -9 -49 -14 -64 -8 -17 6 -20 23 -5
23 6 0 10 -5 10 -10z m-3710 -19 c0 -9 -32 -32 -155 -108 -150 -93 -138 -76
30 45 101 73 125 85 125 63z m590 9 c0 -5 -4 -10 -10 -10 -5 0 -10 5 -10 10 0
6 5 10 10 10 6 0 10 -4 10 -10z m3030 -5 c0 -2 -10 -9 -22 -15 -22 -11 -22
-10 -4 4 21 17 26 19 26 11z m-22 -59 c-7 -8 -15 -12 -17 -11 -5 6 10 25 20
25 5 0 4 -6 -3 -14z m-68 0 c0 -2 -6 -9 -14 -15 -11 -9 -16 -9 -22 0 -4 7 -3
9 4 5 6 -3 13 -2 17 4 6 10 15 14 15 6z m110 -1 c0 -2 -10 -10 -22 -16 -21
-11 -22 -11 -9 4 13 16 31 23 31 12z m-3610 -15 c0 -5 -5 -10 -11 -10 -5 0 -7
5 -4 10 3 6 8 10 11 10 2 0 4 -4 4 -10z m105 0 c-3 -5 -13 -10 -21 -10 -8 0
-12 5 -9 10 3 6 13 10 21 10 8 0 12 -4 9 -10z m3421 -5 c-8 -8 -18 -15 -22
-15 -3 0 -1 7 6 15 7 8 17 15 22 15 5 0 3 -7 -6 -15z m-3471 -15 c-4 -6 -11
-8 -16 -5 -5 4 -9 1 -9 -6 0 -7 -3 -10 -6 -6 -9 9 5 27 22 27 8 0 12 -5 9 -10z
m3409 2 c2 -4 -4 -8 -14 -8 -10 0 -16 4 -14 8 3 4 9 8 14 8 5 0 11 -4 14 -8z
m-3520 -38 c7 -19 0 -34 -17 -34 -7 0 -6 4 3 11 11 8 12 12 3 16 -15 5 -17 23
-4 23 5 0 12 -7 15 -16z m46 -4 c-14 -10 -27 -17 -29 -14 -6 5 31 33 44 33 6
1 -1 -8 -15 -19z m3680 -15 c-14 -17 -30 -20 -30 -6 0 5 8 12 18 14 9 3 19 5
21 6 2 0 -2 -6 -9 -14z m-3635 -4 c3 -5 1 -12 -5 -16 -5 -3 -10 1 -10 9 0 18
6 21 15 7z m3563 -51 c-7 -10 -14 -18 -15 -16 -6 6 9 36 18 36 5 0 4 -9 -3
-20z m470 11 c11 -7 10 -10 -3 -15 -20 -7 -38 1 -30 15 7 11 16 11 33 0z m-68
-41 c0 -5 -5 -10 -11 -10 -5 0 -7 5 -4 10 3 6 8 10 11 10 2 0 4 -4 4 -10z
m-445 -10 c3 -5 1 -10 -4 -10 -6 0 -11 5 -11 10 0 6 2 10 4 10 3 0 8 -4 11
-10z m-3775 -24 c0 -2 -7 -7 -16 -10 -8 -3 -12 -2 -9 4 6 10 25 14 25 6z
m3500 -20 c0 -3 -4 -8 -10 -11 -5 -3 -10 -1 -10 4 0 6 5 11 10 11 6 0 10 -2
10 -4z m190 -6 c0 -5 -2 -10 -4 -10 -3 0 -8 5 -11 10 -3 6 -1 10 4 10 6 0 11
-4 11 -10z m417 3 c-4 -3 -1 -13 6 -22 11 -14 10 -14 -5 -2 -16 12 -16 31 -1
31 4 0 3 -3 0 -7z m-72 -71 c-3 -3 -11 0 -18 7 -9 10 -8 11 6 5 10 -3 15 -9
12 -12z m-348 2 c-3 -3 -12 -4 -19 -1 -8 3 -5 6 6 6 11 1 17 -2 13 -5z m40
-10 c-3 -3 -12 -4 -19 -1 -8 3 -5 6 6 6 11 1 17 -2 13 -5z m-397 -24 c-8 -5
-17 -7 -19 -4 -3 3 1 9 9 14 8 5 17 7 19 4 3 -3 -1 -9 -9 -14z m630 -2 c0 -6
-6 -5 -15 2 -8 7 -15 14 -15 16 0 2 7 1 15 -2 8 -4 15 -11 15 -16z m-416 3 c7
-11 -14 -20 -32 -13 -11 4 -11 6 0 13 17 11 26 11 32 0z m223 3 c-3 -3 -12 -4
-19 -1 -8 3 -5 6 6 6 11 1 17 -2 13 -5z m-1 -49 c0 -14 -1 -25 -1 -25 0 0 -9
10 -19 22 -15 18 -16 20 -2 15 9 -4 16 -2 16 3 0 6 2 10 4 10 2 0 3 -11 2 -25z
m-737 -65 c29 -86 34 -111 24 -121 -10 -10 -44 121 -42 164 1 20 2 20 6 2 2
-11 8 -31 12 -45z m407 24 c18 -14 18 -15 -4 -4 -12 6 -28 8 -34 4 -7 -4 -8
-3 -4 4 10 16 18 15 42 -4z m25 -41 c-7 -33 -28 -70 -34 -63 -3 3 -7 16 -9 30
-2 19 1 25 15 23 12 0 16 4 13 12 -3 8 0 16 7 19 7 2 13 5 13 5 1 1 -1 -11 -5
-26z m-3311 12 c0 -2 -13 -11 -30 -20 -38 -19 -40 -11 -2 9 31 17 32 18 32 11z
m2924 -80 l6 -40 -15 45 c-16 50 -19 73 -6 50 5 -8 12 -33 15 -55z m263 49
c-3 -3 -12 -4 -19 -1 -8 3 -5 6 6 6 11 1 17 -2 13 -5z m65 -28 c-2 -9 1 -16 6
-16 5 0 12 -9 15 -20 3 -11 1 -20 -4 -20 -5 0 -9 -6 -9 -14 0 -7 -9 -16 -19
-19 -30 -8 -36 24 -9 46 18 15 19 18 4 13 -14 -5 -17 -2 -12 10 3 8 6 22 6 31
0 8 6 13 13 10 6 -2 11 -11 9 -21z m-52 4 c0 -5 -4 -10 -10 -10 -5 0 -10 5
-10 10 0 6 5 10 10 10 6 0 10 -4 10 -10z m121 -67 c-12 -20 -14 -14 -5 12 4 9
9 14 11 11 3 -2 0 -13 -6 -23z m-405 -28 c-3 -8 -1 -15 4 -15 5 0 10 8 12 18
3 12 6 9 10 -10 3 -15 1 -25 -4 -22 -5 3 -6 -6 -2 -19 3 -14 1 -34 -6 -44 -9
-15 -11 -13 -7 15 2 17 0 32 -4 32 -3 0 -9 8 -11 18 -5 18 0 42 9 42 3 0 3 -7
-1 -15z m404 0 c8 5 11 4 6 -3 -10 -16 -45 -11 -39 6 5 10 8 11 13 2 5 -7 13
-9 20 -5z m-2660 -21 c0 -2 -7 -4 -15 -4 -8 0 -15 4 -15 10 0 5 7 7 15 4 8 -4
15 -8 15 -10z m40 12 c0 -2 -8 -10 -17 -17 -16 -13 -17 -12 -4 4 13 16 21 21
21 13z m2580 -20 c0 -3 -4 -8 -10 -11 -5 -3 -10 -1 -10 4 0 6 5 11 10 11 6 0
10 -2 10 -4z m-2643 -22 c-3 -3 -12 -4 -19 -1 -8 3 -5 6 6 6 11 1 17 -2 13 -5z
m-181 -18 c18 -19 18 -26 -1 -26 -8 0 -15 2 -15 4 0 2 -3 11 -6 20 -8 20 3 21
22 2z m101 8 c-3 -3 -12 -4 -19 -1 -8 3 -5 6 6 6 11 1 17 -2 13 -5z m-50 -10
c-3 -3 -12 -4 -19 -1 -8 3 -5 6 6 6 11 1 17 -2 13 -5z m254 -41 c-23 -77 -86
-230 -135 -325 -32 -61 -53 -116 -51 -128 3 -13 0 -18 -7 -14 -8 5 -9 1 -5
-10 5 -14 3 -17 -8 -12 -10 3 -15 -1 -16 -12 0 -9 -3 -12 -5 -6 -3 6 32 87 77
180 45 93 88 187 96 209 l14 39 -29 -27 c-15 -15 -36 -27 -46 -27 -11 0 -15
-5 -10 -12 4 -7 3 -10 -1 -5 -10 9 -15 48 -5 42 4 -2 12 7 19 21 6 14 27 50
46 80 31 47 38 53 54 44 16 -8 18 -15 12 -37z m-431 12 c-7 -8 -9 -20 -5 -27
4 -7 -1 -4 -9 6 -12 14 -13 23 -5 33 6 7 15 10 21 7 5 -3 4 -11 -2 -19z m180
11 c0 -2 -8 -10 -17 -17 -16 -13 -17 -12 -4 4 13 16 21 21 21 13z m338 -27
c-3 -8 -7 -3 -11 10 -4 17 -3 21 5 13 5 -5 8 -16 6 -23z m-481 5 c-3 -3 -12
-4 -19 -1 -8 3 -5 6 6 6 11 1 17 -2 13 -5z m70 -10 c-3 -3 -12 -4 -19 -1 -8 3
-5 6 6 6 11 1 17 -2 13 -5z m358 -135 c11 -16 1 -19 -13 -3 -7 8 -8 14 -3 14
5 0 13 -5 16 -11z m-24 -69 c-4 -22 -9 -29 -13 -20 -5 15 9 67 16 59 3 -2 1
-20 -3 -39z m-275 -109 c-4 -5 -3 -16 0 -25 5 -13 9 -14 21 -5 7 7 12 18 9 25
-3 8 0 11 9 8 7 -3 16 -12 19 -20 3 -9 1 -12 -5 -9 -5 4 -17 1 -25 -6 -39 -32
-80 -13 -48 22 18 20 29 26 20 10z m231 -43 c-3 -8 -6 -5 -6 6 -1 11 2 17 5
13 3 -3 4 -12 1 -19z m-46 -40 c11 -21 11 -22 -4 -9 -10 7 -17 17 -17 22 0 15
9 10 21 -13z m2429 -8 c8 -5 11 -10 5 -10 -5 0 -17 5 -25 10 -8 5 -10 10 -5
10 6 0 17 -5 25 -10z m-2440 -14 c0 -3 -4 -8 -10 -11 -5 -3 -10 -1 -10 4 0 6
5 11 10 11 6 0 10 -2 10 -4z m9 -48 c-12 -22 -21 -24 -13 -3 5 11 1 14 -12 9
-13 -4 -15 -3 -6 3 23 17 42 12 31 -9z m3308 16 c-3 -3 -12 -4 -19 -1 -8 3 -5
6 6 6 11 1 17 -2 13 -5z m-3337 -50 c0 -2 -7 -4 -15 -4 -8 0 -15 4 -15 10 0 5
7 7 15 4 8 -4 15 -8 15 -10z m3417 -280 c-3 -3 -12 -4 -19 -1 -8 3 -5 6 6 6
11 1 17 -2 13 -5z"/>
<path d="M2494 6245 c36 -19 47 -19 22 0 -11 8 -27 15 -35 15 -9 0 -3 -7 13
-15z"/>
<path d="M2465 6220 c8 -26 -4 -68 -15 -50 -4 7 -8 -7 -8 -31 0 -34 2 -39 8
-22 7 18 15 21 42 16 l33 -5 -22 22 c-30 27 -30 60 -2 60 18 0 19 2 9 15 -7 8
-21 15 -32 15 -15 0 -18 -5 -13 -20z"/>
<path d="M2566 6208 c4 -6 2 -13 -4 -17 -20 -12 -17 -33 6 -37 15 -3 22 1 22
12 0 11 -5 14 -17 9 -14 -5 -15 -3 -7 5 13 13 58 4 49 -10 -3 -4 5 -6 17 -4
13 3 9 -1 -11 -10 -18 -9 -41 -16 -50 -16 -27 -1 8 -18 49 -23 48 -7 49 -8 20
-18 -18 -6 -12 -7 20 -2 25 3 48 10 51 15 3 5 14 6 25 3 10 -3 7 0 -7 7 -14 7
-32 18 -40 25 -23 18 -129 71 -123 61z m134 -90 c0 -12 -25 -9 -38 4 -7 7 -12
18 -12 25 0 11 6 9 25 -4 13 -10 25 -21 25 -25z m-60 12 c0 -5 -7 -7 -15 -4
-8 4 -15 8 -15 10 0 2 7 4 15 4 8 0 15 -4 15 -10z"/>
<path d="M2854 6174 c38 -13 71 -22 73 -20 5 5 -116 46 -131 45 -6 0 20 -11
58 -25z"/>
<path d="M2560 6100 c0 -5 5 -10 10 -10 6 0 10 5 10 10 0 6 -4 10 -10 10 -5 0
-10 -4 -10 -10z"/>
<path d="M2500 6090 c0 -5 5 -10 10 -10 6 0 10 5 10 10 0 6 -4 10 -10 10 -5 0
-10 -4 -10 -10z"/>
<path d="M2431 6082 c-1 -7 -5 -10 -11 -7 -6 4 -7 -1 -3 -10 3 -10 0 -21 -8
-27 -10 -6 -6 -7 11 -2 33 9 32 7 21 35 -5 13 -10 18 -10 11z"/>
<path d="M2913 6077 c-24 -5 -43 -13 -43 -17 0 -4 28 0 63 8 l63 15 70 -40
c92 -53 248 -133 260 -133 5 0 -31 21 -81 46 -49 26 -125 66 -167 90 -80 46
-95 48 -165 31z"/>
<path d="M2476 6060 c6 -6 21 -6 39 -1 30 9 30 9 -9 10 -26 1 -37 -2 -30 -9z"/>
<path d="M2925 5700 c-4 -6 -2 -16 3 -23 17 -22 31 -96 18 -101 -6 -2 -3 -5 7
-5 9 -1 17 -6 17 -13 0 -6 2 -9 5 -6 4 4 -13 68 -32 118 -4 8 -5 21 -4 28 2
15 -5 16 -14 2z"/>
<path d="M2906 5644 c-4 -14 -5 -28 -3 -31 3 -2 8 8 11 23 4 14 5 28 3 31 -3
2 -8 -8 -11 -23z"/>
<path d="M2924 5606 c-4 -9 -13 -15 -20 -12 -10 4 -14 -3 -14 -19 0 -14 5 -25
10 -25 6 0 9 4 8 9 -2 5 1 9 7 9 10 1 28 42 20 50 -2 3 -7 -3 -11 -12z"/>
<path d="M2928 5553 c6 -2 18 -2 25 0 6 3 1 5 -13 5 -14 0 -19 -2 -12 -5z"/>
<path d="M2868 5343 c6 -2 18 -2 25 0 6 3 1 5 -13 5 -14 0 -19 -2 -12 -5z"/>
<path d="M2998 5323 c7 -3 16 -2 19 1 4 3 -2 6 -13 5 -11 0 -14 -3 -6 -6z"/>
<path d="M2687 5314 c-3 -4 -23 -9 -44 -11 -20 -2 -40 -6 -43 -9 -2 -3 15 -4
38 -1 24 2 48 9 55 16 6 6 9 11 6 11 -3 0 -9 -3 -12 -6z"/>
<path d="M3087 5277 c34 -54 86 -116 94 -111 5 3 6 -1 3 -9 -3 -8 0 -18 6 -22
8 -5 10 13 8 61 l-3 67 -45 13 c-57 17 -73 18 -63 1z m53 -33 c0 -8 5 -14 10
-14 6 0 10 -4 10 -10 0 -22 -19 -8 -29 20 -6 18 -6 28 -1 25 6 -4 10 -13 10
-21z m46 -15 c0 -16 -3 -26 -8 -23 -5 3 -6 10 -2 15 3 6 -2 17 -12 24 -18 13
-18 14 2 12 15 -1 20 -8 20 -28z"/>
<path d="M2530 5276 c0 -2 7 -6 15 -10 8 -3 15 -1 15 4 0 6 -7 10 -15 10 -8 0
-15 -2 -15 -4z"/>
<path d="M2590 5265 c-14 -8 -20 -14 -14 -15 5 0 19 7 30 15 24 18 16 19 -16
0z"/>
<path d="M2791 5244 c1 -21 5 -50 10 -64 5 -16 6 -4 2 35 -6 70 -13 86 -12 29z"/>
<path d="M3330 5120 c-21 -5 -3 -6 45 -3 44 3 82 7 84 9 8 7 -93 2 -129 -6z"/>
<path d="M3240 5106 c0 -2 7 -9 15 -16 13 -11 14 -10 9 4 -5 14 -24 23 -24 12z"/>
<path d="M3300 5066 c0 -3 9 -10 20 -16 11 -6 20 -8 20 -6 0 3 -9 10 -20 16
-11 6 -20 8 -20 6z"/>
<path d="M2759 5429 c-23 -19 -23 -20 -2 -10 12 6 25 16 28 21 10 16 -1 12
-26 -11z"/>
<path d="M4150 5306 c0 -2 8 -10 18 -17 15 -13 16 -12 3 4 -13 16 -21 21 -21
13z"/>
<path d="M4220 5246 c0 -2 8 -10 18 -17 15 -13 16 -12 3 4 -13 16 -21 21 -21
13z"/>
<path d="M1977 4473 c-4 -3 -2 -12 3 -18 8 -10 1 -10 -29 -2 -30 8 -41 7 -53
-4 -14 -12 -14 -15 1 -27 10 -8 4 -7 -16 3 -18 8 -47 15 -65 15 -32 0 -32 0
-10 -16 12 -8 28 -12 35 -8 6 4 9 4 5 -1 -4 -4 0 -14 10 -22 15 -11 13 -12
-11 -3 -16 5 -40 10 -55 9 -24 0 -25 -1 -7 -9 11 -5 16 -9 10 -10 -10 -1 155
-58 189 -65 10 -3 26 0 35 4 8 5 22 6 31 1 8 -4 47 -10 85 -12 39 -3 64 -3 58
-1 -8 3 -13 23 -13 49 0 36 -5 50 -27 70 -33 30 -70 41 -86 24 -9 -10 -9 -11
2 -5 9 5 12 4 7 -3 -5 -8 -19 -4 -46 13 -44 28 -44 28 -53 18z m138 -43 c10
-11 16 -20 13 -20 -3 0 -13 9 -23 20 -10 11 -16 20 -13 20 3 0 13 -9 23 -20z"/>
<path d="M1835 4224 c-134 -21 -283 -101 -269 -146 3 -11 -1 -20 -10 -24 -17
-6 -22 -24 -8 -24 5 0 17 8 28 18 10 10 27 16 37 14 20 -4 23 -22 4 -22 -8 0
-21 -8 -31 -19 -17 -18 -60 -18 -72 0 -3 5 -10 9 -16 9 -7 0 0 -13 15 -28 33
-35 34 -42 2 -42 -16 0 -25 -6 -25 -16 0 -13 7 -16 38 -11 20 3 46 8 57 12 11
4 1 -5 -22 -20 -24 -14 -43 -28 -43 -30 0 -6 33 6 48 18 7 6 12 6 12 0 0 -5
12 -15 26 -22 23 -10 24 -14 13 -28 -12 -14 -12 -16 1 -7 8 5 24 9 34 9 12 0
20 8 23 25 4 30 8 32 56 49 24 8 53 10 80 5 92 -16 143 1 172 56 19 37 36 37
92 5 44 -26 52 -40 31 -48 -7 -3 -4 -6 7 -6 11 0 27 4 35 9 12 9 3 22 -52 73
-52 49 -65 66 -59 81 7 17 10 16 45 -15 37 -32 38 -32 31 -9 -11 39 -57 92
-98 113 -37 19 -126 29 -182 21z m93 -20 c31 -9 28 -22 -5 -18 -28 4 -28 4 2
-7 95 -34 119 -51 99 -72 -10 -9 -54 15 -54 30 0 7 -4 13 -10 13 -5 0 -10 -7
-10 -15 0 -29 -39 -10 -53 25 -4 10 -6 8 -6 -6 -1 -30 -29 -38 -54 -17 -11 10
-17 12 -12 4 18 -30 -46 -42 -79 -13 -20 16 -20 16 -7 -1 19 -24 7 -33 -26
-18 -23 10 -26 10 -15 0 18 -19 15 -26 -19 -38 -22 -8 -37 -8 -51 0 -25 14
-19 19 67 65 64 33 66 39 10 19 -33 -11 37 28 75 41 37 14 111 18 148 8z m92
-34 c22 -11 40 -23 40 -25 0 -3 -17 3 -37 13 -21 11 -45 22 -53 25 -10 4 -11
6 -2 6 7 1 31 -8 52 -19z m-150 -130 c0 -5 -7 -10 -15 -10 -8 0 -15 5 -15 10
0 6 7 10 15 10 8 0 15 -4 15 -10z m90 -30 c0 -5 0 -13 0 -17 0 -5 -4 -8 -9 -8
-5 0 -13 -4 -18 -9 -5 -5 -3 -6 5 -2 6 4 12 3 12 -2 0 -6 -23 -13 -51 -17 -38
-5 -54 -4 -60 6 -11 19 14 31 42 20 19 -6 27 -3 42 15 19 25 37 31 37 14z
m-303 -125 c0 -8 -4 -12 -9 -9 -5 3 -6 10 -3 15 9 13 12 11 12 -6z"/>
<path d="M2855 4182 c-16 -11 -37 -27 -45 -37 -13 -16 38 16 75 47 16 14 1 9
-30 -10z"/>
<path d="M2850 4139 c-17 -13 -18 -17 -5 -10 33 17 51 31 40 31 -5 0 -21 -10
-35 -21z"/>
<path d="M2746 4087 c3 -10 9 -15 12 -12 3 3 0 11 -7 18 -10 9 -11 8 -5 -6z"/>
<path d="M2898 3933 c7 -3 16 -2 19 1 4 3 -2 6 -13 5 -11 0 -14 -3 -6 -6z"/>
<path d="M1920 3894 c-11 -27 -5 -48 11 -38 5 3 6 10 3 16 -4 6 0 14 7 19 12
7 11 9 -1 9 -13 0 -13 1 0 10 10 7 11 10 2 10 -7 0 -17 -12 -22 -26z"/>
<path d="M1962 3895 c0 -16 2 -22 5 -12 2 9 2 23 0 30 -3 6 -5 -1 -5 -18z"/>
<path d="M2967 3898 c-9 -31 -2 -33 11 -3 6 14 8 25 3 25 -5 0 -11 -10 -14
-22z"/>
<path d="M1748 3893 c-20 -23 -38 -58 -38 -74 0 -7 14 9 31 35 31 47 36 72 7
39z"/>
<path d="M1811 3879 c-11 -32 -15 -76 -6 -67 3 2 11 26 19 51 16 52 4 65 -13
16z"/>
<path d="M1865 3899 c4 -6 -1 -17 -11 -25 -17 -12 -17 -13 -1 -8 11 4 17 1 17
-10 0 -32 15 -15 17 19 1 25 -3 35 -13 35 -8 0 -12 -5 -9 -11z"/>
<path d="M3030 3863 c0 -54 9 -51 20 7 6 31 4 40 -6 40 -10 0 -14 -14 -14 -47z"/>
<path d="M2265 3455 c-33 -32 -33 -72 0 -87 23 -10 29 -8 60 27 41 44 42 49
13 69 -31 22 -45 20 -73 -9z"/>
<path d="M2515 3171 c-41 -13 -85 -42 -79 -52 3 -6 -8 -4 -24 5 -42 22 -84 20
-126 -5 -47 -27 -47 -17 -1 11 36 22 83 24 130 5 16 -6 16 -4 -3 10 -36 26
-88 22 -136 -13 -22 -16 -40 -34 -39 -39 1 -6 -8 -19 -20 -29 l-22 -19 19 23
c41 48 -3 19 -64 -43 -35 -36 -70 -65 -77 -65 -7 0 -13 -8 -13 -17 0 -15 -2
-16 -10 -3 -19 29 -10 -3 10 -35 23 -37 65 -72 125 -103 43 -22 43 -28 1 -12
-40 15 -31 6 28 -31 30 -18 53 -36 50 -41 -3 -4 3 -5 12 -1 10 3 15 2 12 -3
-7 -10 23 -15 86 -14 22 0 43 -5 47 -11 9 -15 241 -14 268 1 20 10 98 138 93
153 -1 4 2 7 6 7 5 0 14 11 20 24 9 21 8 25 -6 29 -11 3 -6 7 15 12 45 10 59
65 16 65 -8 0 -49 32 -91 70 -105 99 -177 137 -227 121z m-345 -154 c0 -2 -10
-12 -22 -23 l-23 -19 19 23 c18 21 26 27 26 19z m293 -64 c-23 -2 -64 -2 -90
0 -26 2 -7 3 42 3 50 0 71 -1 48 -3z m95 -48 c2 -15 -6 -26 -30 -37 -29 -15
-30 -17 -10 -17 13 -1 20 -5 17 -11 -3 -5 -31 -9 -61 -9 -43 1 -54 5 -54 18 0
38 -25 44 -78 18 -27 -13 -77 2 -77 23 0 30 46 40 170 38 112 -3 120 -4 123
-23z"/>
<path d="M1252 3140 c0 -14 2 -19 5 -12 2 6 2 18 0 25 -3 6 -5 1 -5 -13z"/>
<path d="M1311 3013 c-1 -6 -4 -20 -7 -30 -5 -17 -5 -17 6 0 6 10 9 23 6 30
-3 9 -5 9 -5 0z"/>
<path d="M1139 2856 c17 -21 51 -40 51 -29 0 5 -15 17 -32 28 -29 17 -31 17
-19 1z"/>
<path d="M2212 2744 c10 -10 20 -16 22 -13 3 3 -5 11 -17 18 -21 13 -21 12 -5
-5z"/>
<path d="M4550 4229 c0 -5 5 -7 10 -4 6 3 10 8 10 11 0 2 -4 4 -10 4 -5 0 -10
-5 -10 -11z"/>
<path d="M4525 4150 c-3 -5 3 -10 15 -10 12 0 18 5 15 10 -3 6 -10 10 -15 10
-5 0 -12 -4 -15 -10z"/>
<path d="M4380 4105 c-7 -9 -11 -18 -8 -20 3 -3 11 1 18 10 7 9 11 18 8 20 -3
3 -11 -1 -18 -10z"/>
<path d="M4392 3988 c-7 -7 -12 -16 -12 -21 0 -5 7 -1 16 8 9 9 14 18 12 20
-2 3 -10 -1 -16 -7z"/>
<path d="M4430 3984 c0 -9 5 -14 12 -12 18 6 21 28 4 28 -9 0 -16 -7 -16 -16z"/>
<path d="M840 3791 c0 -6 5 -13 10 -16 6 -3 10 1 10 9 0 9 -4 16 -10 16 -5 0
-10 -4 -10 -9z"/>
<path d="M4042 3167 c-18 -34 -25 -53 -16 -42 19 24 57 96 52 100 -2 2 -18
-24 -36 -58z"/>
<path d="M668 2833 c7 -3 16 -2 19 1 4 3 -2 6 -13 5 -11 0 -14 -3 -6 -6z"/>
<path d="M405 2640 c-3 -6 1 -7 9 -4 18 7 21 14 7 14 -6 0 -13 -4 -16 -10z"/>
<path d="M655 2569 c-61 -50 -66 -55 -40 -40 23 13 103 81 95 81 -3 0 -28 -18
-55 -41z"/>
<path d="M564 2499 c-19 -22 -19 -22 4 -8 12 8 22 17 22 21 0 12 -6 9 -26 -13z"/>
<path d="M4520 2830 c-13 -8 -12 -10 3 -10 9 0 17 5 17 10 0 12 -1 12 -20 0z"/>
<path d="M4458 2773 c7 -3 16 -2 19 1 4 3 -2 6 -13 5 -11 0 -14 -3 -6 -6z"/>
<path d="M3598 2193 c6 -2 18 -2 25 0 6 3 1 5 -13 5 -14 0 -19 -2 -12 -5z"/>
<path d="M3503 2150 c-23 -9 -32 -30 -13 -30 6 0 10 5 10 11 0 5 4 8 9 5 5 -3
11 1 15 9 3 8 4 15 3 14 -1 0 -12 -4 -24 -9z"/>
<path d="M3550 2150 c-8 -5 -10 -10 -5 -10 6 0 17 5 25 10 8 5 11 10 5 10 -5
0 -17 -5 -25 -10z"/>
<path d="M3505 2100 c3 -5 8 -10 11 -10 2 0 4 5 4 10 0 6 -5 10 -11 10 -5 0
-7 -4 -4 -10z"/>
<path d="M3590 2081 c0 -5 9 -7 20 -4 16 4 20 0 20 -18 0 -18 3 -20 9 -10 5 8
7 20 4 28 -6 14 -53 18 -53 4z"/>
<path d="M3540 2062 c0 -5 9 -17 20 -27 19 -17 19 -17 7 9 -12 25 -27 35 -27
18z"/>
<path d="M3430 2053 c0 -8 -13 -11 -39 -8 -36 3 -39 2 -45 -27 -3 -18 -1 -37
5 -44 13 -16 55 -19 64 -4 11 18 23 11 18 -10 -6 -24 13 -26 41 -5 17 13 18
15 3 15 -9 0 -17 -4 -17 -10 0 -5 -5 -10 -11 -10 -6 0 -8 9 -4 20 4 11 2 20
-4 20 -6 0 -11 12 -10 28 l1 27 8 -25 c7 -21 8 -21 9 -5 0 11 -4 27 -9 35 -6
9 -10 10 -10 3z"/>
<path d="M3611 2030 c0 -20 -7 -42 -13 -50 -7 -7 3 -4 22 8 19 11 37 29 39 39
3 17 2 17 -17 0 -20 -18 -21 -18 -25 10 -4 25 -4 24 -6 -7z"/>
<path d="M3529 1995 c-1 -8 -3 -19 -4 -25 -1 -5 -3 -14 -4 -20 0 -5 -10 -10
-20 -10 -11 0 -23 -4 -26 -10 -8 -13 8 -13 39 1 14 7 23 16 20 21 -3 5 0 9 7
7 26 -3 39 1 39 12 0 7 -11 9 -27 5 -16 -3 -22 -3 -15 0 14 7 16 34 2 34 -5 0
-11 -7 -11 -15z"/>
<path d="M3281 1964 c0 -11 3 -14 6 -6 3 7 2 16 -1 19 -3 4 -6 -2 -5 -13z"/>
<path d="M3320 1958 c0 -9 10 -18 23 -22 31 -8 37 -7 37 4 0 6 -8 10 -18 10
-10 0 -23 5 -30 12 -9 9 -12 8 -12 -4z"/>
<path d="M3282 1932 c-7 -2 -12 -8 -12 -13 0 -4 7 -6 15 -3 9 4 15 0 15 -8 0
-13 23 -29 60 -41 10 -4 8 -6 -6 -6 -12 -1 -29 -11 -38 -23 -12 -16 -18 -19
-22 -10 -3 6 -11 9 -16 5 -7 -4 -9 2 -6 15 4 12 2 25 -3 28 -10 6 -10 -30 -1
-62 7 -20 9 -19 65 17 l58 37 -36 12 c-19 6 -35 16 -35 21 0 13 6 12 51 -12
23 -11 43 -19 45 -17 7 7 -122 64 -134 60z"/>
<path d="M3581 1927 c-6 -8 -7 -18 -3 -22 4 -5 2 -5 -5 -1 -7 4 -17 -6 -26
-24 -9 -16 -11 -30 -6 -30 31 0 88 51 89 78 0 16 -35 16 -49 -1z"/>
<path d="M3410 1898 c0 -11 31 -10 50 2 10 6 5 9 -18 8 -18 -1 -32 -5 -32 -10z"/>
<path d="M785 2009 c-4 -6 -5 -12 -2 -15 2 -3 7 2 10 11 7 17 1 20 -8 4z"/>
<path d="M886 1985 c-9 -26 -7 -32 5 -12 6 10 9 21 6 23 -2 3 -7 -2 -11 -11z"/>
<path d="M842 1955 c-7 -8 -9 -15 -4 -15 5 0 15 7 22 15 16 19 -1 19 -18 0z"/>
<path d="M805 1938 c4 -10 -2 -17 -16 -21 -13 -4 -20 -9 -17 -12 3 -4 18 0 33
7 24 13 25 16 11 28 -14 11 -16 10 -11 -2z"/>
<path d="M701 1924 c0 -11 3 -14 6 -6 3 7 2 16 -1 19 -3 4 -6 -2 -5 -13z"/>
<path d="M725 1900 c-3 -6 1 -7 9 -4 18 7 21 14 7 14 -6 0 -13 -4 -16 -10z"/>
<path d="M656 1834 c-4 -10 -1 -14 6 -12 15 5 23 28 10 28 -5 0 -13 -7 -16
-16z"/>
<path d="M3535 1140 c3 -5 8 -10 11 -10 2 0 4 5 4 10 0 6 -5 10 -11 10 -5 0
-7 -4 -4 -10z"/>
<path d="M770 650 c0 -5 5 -10 10 -10 6 0 10 5 10 10 0 6 -4 10 -10 10 -5 0
-10 -4 -10 -10z"/>
<path d="M4693 7075 c-3 -9 -3 -18 -1 -21 3 -3 8 4 11 16 6 23 -1 27 -10 5z"/>
<path d="M4652 7073 c-7 -2 -17 -13 -22 -24 -9 -15 -7 -19 6 -19 10 0 14 3 11
7 -4 3 0 15 10 25 17 19 16 20 -5 11z"/>
<path d="M4616 6997 c3 -10 9 -15 12 -12 3 3 0 11 -7 18 -10 9 -11 8 -5 -6z"/>
<path d="M4591 6972 c-14 -26 -15 -64 -2 -42 6 8 7 18 4 23 -3 5 0 7 8 5 9 -3
13 -16 11 -32 -2 -18 1 -25 7 -21 15 9 14 28 -3 60 -14 26 -15 26 -25 7z"/>
<path d="M4670 6900 c0 -11 -7 -23 -16 -27 -13 -5 -12 -9 7 -29 12 -13 26 -21
32 -17 6 4 8 -5 4 -23 -3 -16 -4 -23 -1 -16 3 6 10 10 15 6 5 -3 5 5 0 19 -8
19 -5 29 10 45 23 25 25 48 5 55 -10 4 -13 1 -9 -9 3 -7 1 -14 -5 -14 -5 0
-13 -11 -16 -25 -7 -29 -21 -33 -30 -9 -4 11 -2 15 8 11 10 -4 13 -1 10 7 -3
8 -1 17 5 21 16 9 13 25 -4 25 -8 0 -15 -9 -15 -20z"/>
<path d="M4546 6884 c-3 -9 -2 -22 2 -31 6 -10 9 -5 9 16 0 35 -2 38 -11 15z"/>
<path d="M3660 6865 c-7 -9 -11 -17 -9 -20 3 -2 10 5 17 15 14 24 10 26 -8 5z"/>
<path d="M4522 6838 c-7 -7 -12 -16 -12 -22 0 -5 -12 -33 -27 -62 -20 -41 -24
-57 -16 -65 9 -9 11 -6 7 12 -5 19 -4 21 5 9 9 -13 11 -13 11 3 0 14 18 51 38
77 1 2 7 -1 11 -9 6 -10 10 -9 14 4 4 9 3 14 -1 11 -4 -2 -14 -1 -21 3 -10 7
-10 13 -2 30 13 24 11 27 -7 9z"/>
<path d="M2568 6805 c-11 -13 -26 -22 -31 -18 -6 3 -7 1 -3 -5 10 -16 -22 -74
-36 -66 -7 4 -8 3 -4 -5 4 -6 -2 -27 -15 -47 -12 -20 -18 -39 -13 -43 5 -5 34
-13 64 -19 30 -6 66 -14 80 -18 19 -4 21 -3 10 5 -12 8 -12 12 2 28 25 27 68
118 68 142 0 30 -44 71 -75 71 -14 0 -34 -10 -47 -25z"/>
<path d="M3095 6812 c-110 -20 -175 -96 -175 -204 0 -85 103 -174 192 -166
160 15 234 192 129 312 -30 34 -108 66 -146 58z"/>
<path d="M3610 6811 c0 -6 4 -13 10 -16 6 -3 7 1 4 9 -7 18 -14 21 -14 7z"/>
<path d="M4647 6807 c-3 -7 3 -13 13 -13 10 0 16 6 13 13 -3 7 -9 13 -13 13
-4 0 -10 -6 -13 -13z"/>
<path d="M1025 6800 c-3 -5 -1 -10 4 -10 6 0 11 5 11 10 0 6 -2 10 -4 10 -3 0
-8 -4 -11 -10z"/>
<path d="M4580 6801 c0 -5 7 -12 16 -15 22 -9 24 -8 18 9 -7 16 -34 21 -34 6z"/>
<path d="M4648 6773 c7 -3 16 -2 19 1 4 3 -2 6 -13 5 -11 0 -14 -3 -6 -6z"/>
<path d="M4585 6760 c3 -5 8 -10 11 -10 2 0 4 5 4 10 0 6 -5 10 -11 10 -5 0
-7 -4 -4 -10z"/>
<path d="M4692 6754 c-13 -6 -19 -15 -14 -18 6 -3 13 -2 17 4 3 5 11 10 17 10
7 0 6 -6 -2 -15 -7 -8 -21 -15 -32 -15 -10 0 -16 -5 -13 -10 4 -6 11 -7 17 -4
6 4 3 -7 -8 -25 -18 -30 -34 -41 -34 -22 0 5 7 11 15 15 8 3 15 11 15 17 0 7
-8 5 -20 -6 -11 -10 -18 -25 -15 -34 3 -9 -15 -45 -41 -81 -25 -36 -55 -80
-66 -97 -11 -18 -25 -30 -31 -26 -5 3 -7 2 -4 -4 4 -5 -1 -19 -11 -29 -10 -10
-32 -43 -51 -71 -18 -29 -37 -50 -42 -47 -5 3 -6 -3 -2 -12 7 -20 8 -19 121
128 37 49 72 88 79 88 7 0 10 6 7 13 -5 14 121 177 137 177 13 0 11 49 -3 64
-10 9 -18 9 -36 0z"/>
<path d="M4525 6740 c-3 -5 -1 -10 4 -10 6 0 11 5 11 10 0 6 -2 10 -4 10 -3 0
-8 -4 -11 -10z"/>
<path d="M4495 6680 c-3 -5 -1 -10 4 -10 6 0 11 5 11 10 0 6 -2 10 -4 10 -3 0
-8 -4 -11 -10z"/>
<path d="M4695 6643 c-16 -21 -43 -56 -58 -78 l-28 -40 27 30 c14 17 44 49 65
73 22 24 39 45 39 48 0 13 -19 -1 -45 -33z"/>
<path d="M2380 6650 c0 -5 5 -10 11 -10 5 0 7 5 4 10 -3 6 -8 10 -11 10 -2 0
-4 -4 -4 -10z"/>
<path d="M4605 6629 c-11 -17 1 -21 15 -4 8 9 8 15 2 15 -6 0 -14 -5 -17 -11z"/>
<path d="M930 6570 c-8 -5 -11 -13 -6 -17 5 -4 11 -2 13 5 3 6 9 10 13 7 5 -3
11 -1 15 5 8 13 -15 13 -35 0z"/>
<path d="M965 6549 c-4 -6 -5 -12 -2 -15 2 -3 7 2 10 11 7 17 1 20 -8 4z"/>
<path d="M890 6510 c0 -5 5 -10 10 -10 6 0 10 5 10 10 0 6 -4 10 -10 10 -5 0
-10 -4 -10 -10z"/>
<path d="M937 6503 c-4 -3 -7 -11 -7 -17 0 -6 5 -5 12 2 6 6 9 14 7 17 -3 3
-9 2 -12 -2z"/>
<path d="M885 6461 c-8 -26 -3 -81 8 -74 5 3 6 16 3 29 -4 14 -2 33 4 44 7 12
7 20 1 20 -5 0 -12 -8 -16 -19z"/>
<path d="M4670 6368 c-73 -127 -144 -249 -198 -336 -24 -40 -42 -75 -39 -78 8
-8 58 21 85 48 24 25 70 88 130 180 33 51 62 71 54 39 -1 -7 2 -10 7 -7 5 4 8
20 6 37 -3 20 1 32 10 36 12 4 15 25 15 89 0 46 -4 84 -9 84 -5 0 -32 -42 -61
-92z"/>
<path d="M900 6440 c0 -5 5 -10 10 -10 6 0 10 5 10 10 0 6 -4 10 -10 10 -5 0
-10 -4 -10 -10z"/>
<path d="M835 6380 c3 -5 10 -10 16 -10 5 0 9 5 9 10 0 6 -7 10 -16 10 -8 0
-12 -4 -9 -10z"/>
<path d="M2018 6373 c6 -2 18 -2 25 0 6 3 1 5 -13 5 -14 0 -19 -2 -12 -5z"/>
<path d="M770 6362 c0 -4 6 -14 13 -21 10 -11 8 -12 -10 -6 -35 10 -28 -14 7
-26 17 -6 30 -17 30 -24 0 -8 4 -16 9 -19 5 -4 7 4 3 16 -3 13 -1 19 5 15 11
-7 40 50 30 60 -3 3 -9 -6 -12 -20 -7 -25 -30 -43 -38 -29 -2 4 -7 19 -11 35
-6 24 -26 39 -26 19z"/>
<path d="M810 6340 c0 -5 5 -10 11 -10 5 0 7 5 4 10 -3 6 -8 10 -11 10 -2 0
-4 -4 -4 -10z"/>
<path d="M4310 6320 c0 -5 5 -10 10 -10 6 0 10 5 10 10 0 6 -4 10 -10 10 -5 0
-10 -4 -10 -10z"/>
<path d="M1495 6290 c3 -5 8 -10 11 -10 2 0 4 5 4 10 0 6 -5 10 -11 10 -5 0
-7 -4 -4 -10z"/>
<path d="M665 6281 c-3 -6 -18 -11 -33 -12 -24 0 -25 -1 -7 -9 11 -4 24 -4 29
1 10 9 46 -7 58 -25 5 -8 8 -8 8 0 0 18 -47 57 -55 45z"/>
<path d="M1765 6281 c-6 -6 -62 -24 -125 -41 -63 -17 -135 -37 -159 -43 -49
-13 -67 -37 -29 -37 33 0 248 27 281 35 42 11 32 25 -18 25 -57 0 -58 12 -2
27 58 16 61 16 66 2 2 -7 -1 -9 -9 -4 -9 5 -11 4 -6 -4 10 -15 22 -7 29 19 3
11 1 18 -3 15 -5 -3 -10 0 -12 5 -2 7 -7 7 -13 1z"/>
<path d="M765 6263 c-7 -21 -7 -23 9 -23 7 0 16 8 18 18 6 22 -18 26 -27 5z"/>
<path d="M724 6205 c-9 -37 -1 -39 20 -5 15 26 15 30 2 30 -9 0 -18 -11 -22
-25z"/>
<path d="M606 6203 c5 -5 12 -12 16 -18 4 -6 8 -2 8 8 0 9 -7 17 -17 17 -9 0
-12 -3 -7 -7z"/>
<path d="M4666 6178 l-18 -33 21 25 c18 22 26 40 18 40 -1 0 -11 -15 -21 -32z"/>
<path d="M465 6190 c3 -5 8 -10 11 -10 2 0 4 5 4 10 0 6 -5 10 -11 10 -5 0 -7
-4 -4 -10z"/>
<path d="M760 6179 c0 -5 5 -7 10 -4 6 3 10 8 10 11 0 2 -4 4 -10 4 -5 0 -10
-5 -10 -11z"/>
<path d="M1730 6175 c-33 -19 -21 -19 21 0 19 8 27 14 19 14 -8 0 -26 -6 -40
-14z"/>
<path d="M1618 6163 c6 -2 18 -2 25 0 6 3 1 5 -13 5 -14 0 -19 -2 -12 -5z"/>
<path d="M1668 6161 c10 -6 4 -12 -20 -20 -18 -7 -71 -29 -117 -49 -46 -21
-89 -39 -94 -41 -5 -2 -7 3 -3 10 4 8 0 5 -9 -6 -9 -11 -21 -19 -26 -17 -6 1
-8 -2 -4 -8 9 -14 -8 -13 -24 3 -10 10 -11 9 -6 -5 5 -12 2 -18 -8 -18 -8 0
-17 -7 -21 -15 -3 -9 48 11 127 49 73 35 156 74 185 87 35 15 48 25 40 31 -7
4 -17 8 -23 8 -5 0 -4 -4 3 -9z"/>
<path d="M726 6152 c-2 -4 4 -8 14 -8 10 0 16 4 14 8 -3 4 -9 8 -14 8 -5 0
-11 -4 -14 -8z"/>
<path d="M430 6146 c0 -3 5 -17 10 -32 8 -19 14 -24 21 -17 7 7 7 17 -3 32
-11 19 -28 28 -28 17z"/>
<path d="M1312 6115 c-13 -19 -47 -55 -75 -81 -115 -105 -220 -207 -211 -203
5 2 65 33 134 68 l125 64 26 76 c14 42 29 84 33 94 14 30 -8 18 -32 -18z"/>
<path d="M726 6114 c-10 -25 1 -29 14 -5 6 12 7 21 1 21 -5 0 -12 -7 -15 -16z"/>
<path d="M645 6110 c-11 -17 5 -29 26 -22 11 5 21 12 22 16 3 13 -41 18 -48 6z"/>
<path d="M4613 6108 c-15 -20 -25 -38 -20 -38 3 0 12 11 21 25 17 26 16 35 -1
13z"/>
<path d="M1270 6100 c-9 -6 -10 -10 -3 -10 6 0 15 5 18 10 8 12 4 12 -15 0z"/>
<path d="M463 6075 c-7 -8 -9 -16 -4 -19 5 -3 12 1 15 10 8 22 4 25 -11 9z"/>
<path d="M595 6040 c-3 -5 3 -10 15 -10 12 0 18 5 15 10 -3 6 -10 10 -15 10
-5 0 -12 -4 -15 -10z"/>
<path d="M1585 6041 c-3 -5 -2 -12 3 -15 5 -3 9 1 9 9 0 17 -3 19 -12 6z"/>
<path d="M571 6011 c-9 -6 0 -11 28 -16 22 -4 41 -11 41 -16 0 -6 5 -7 10 -4
6 4 8 11 5 16 -4 5 2 9 12 10 16 0 16 1 -2 8 -11 5 -28 4 -38 -1 -12 -6 -23
-6 -30 1 -7 5 -19 6 -26 2z"/>
<path d="M4169 6003 c-13 -16 -12 -17 4 -4 9 7 17 15 17 17 0 8 -8 3 -21 -13z"/>
<path d="M695 6000 c-3 -5 -2 -10 4 -10 5 0 13 5 16 10 3 6 2 10 -4 10 -5 0
-13 -4 -16 -10z"/>
<path d="M4555 5955 c-5 -22 -9 -42 -10 -45 -1 -3 -7 -23 -13 -44 -6 -22 -9
-42 -7 -45 3 -2 5 1 5 8 0 7 4 10 9 7 5 -4 7 4 4 16 -3 17 -2 19 5 9 7 -10 9
-4 7 20 -1 18 2 46 7 61 5 15 8 33 6 40 -3 7 -9 -5 -13 -27z"/>
<path d="M4592 5974 c1 -9 9 -19 16 -22 9 -3 13 2 10 14 -1 9 -9 19 -16 22 -9
3 -13 -2 -10 -14z"/>
<path d="M720 5971 c0 -6 4 -13 10 -16 6 -3 7 1 4 9 -7 18 -14 21 -14 7z"/>
<path d="M4636 5945 c-9 -26 -7 -32 5 -12 6 10 9 21 6 23 -2 3 -7 -2 -11 -11z"/>
<path d="M703 5910 c0 -41 10 -52 21 -24 7 18 -3 64 -14 64 -4 0 -7 -18 -7
-40z"/>
<path d="M729 5873 c-20 -56 -20 -58 -11 -48 11 12 33 75 26 75 -2 0 -9 -12
-15 -27z"/>
<path d="M1239 5833 c-13 -16 -12 -17 4 -4 16 13 21 21 13 21 -2 0 -10 -8 -17
-17z"/>
<path d="M680 5799 c0 -5 5 -7 10 -4 6 3 10 8 10 11 0 2 -4 4 -10 4 -5 0 -10
-5 -10 -11z"/>
<path d="M1210 5799 c0 -5 5 -7 10 -4 6 3 10 8 10 11 0 2 -4 4 -10 4 -5 0 -10
-5 -10 -11z"/>
<path d="M775 5592 c-49 -16 -49 -17 -18 -20 29 -3 31 -5 20 -23 -6 -10 -19
-19 -27 -20 -10 0 -11 -2 -3 -6 8 -3 -2 -20 -28 -46 -21 -23 -37 -47 -34 -55
3 -7 0 -10 -6 -7 -13 9 -38 -24 -38 -50 0 -15 11 -7 49 35 28 30 48 60 45 67
-2 7 1 15 7 19 7 5 8 2 3 -7 -4 -8 14 7 40 34 26 26 53 47 62 47 19 0 13 44
-7 46 -8 1 -37 -5 -65 -14z"/>
<path d="M3410 5574 c19 -9 41 -21 48 -26 8 -7 12 -7 12 1 0 11 -23 23 -70 35
-15 3 -11 -1 10 -10z"/>
<path d="M4282 5462 c-21 -27 -27 -47 -27 -84 0 -26 1 -48 2 -48 3 0 103 148
103 153 0 3 -11 7 -25 10 -21 3 -31 -3 -53 -31z"/>
<path d="M3620 5431 c0 -5 5 -13 10 -16 6 -3 10 -2 10 4 0 5 -4 13 -10 16 -5
3 -10 2 -10 -4z"/>
<path d="M1111 5401 c-8 -5 -19 -7 -26 -5 -6 3 -22 0 -36 -6 -24 -10 -24 -10
4 -5 39 8 34 0 -22 -32 -51 -28 -61 -51 -13 -30 36 16 109 64 117 77 8 12 -5
13 -24 1z"/>
<path d="M2035 5324 c-148 -84 -476 -287 -471 -291 3 -3 19 5 35 17 17 12 31
19 31 15 0 -3 10 3 22 15 12 11 27 20 34 20 6 0 17 6 23 14 12 15 76 48 87 46
4 -1 10 2 13 7 3 4 31 21 61 38 123 65 276 166 250 165 -3 0 -41 -21 -85 -46z"/>
<path d="M4216 5352 c-3 -5 1 -9 9 -9 8 0 12 4 9 9 -3 4 -7 8 -9 8 -2 0 -6 -4
-9 -8z"/>
<path d="M3650 5336 c0 -2 7 -7 16 -10 8 -3 12 -2 9 4 -6 10 -25 14 -25 6z"/>
<path d="M3705 5305 c22 -18 86 -53 70 -38 -5 6 -28 20 -50 32 -22 13 -31 15
-20 6z"/>
<path d="M3773 5229 c-35 -22 -46 -37 -15 -20 22 13 58 40 52 41 -3 0 -20 -10
-37 -21z"/>
<path d="M655 5069 c-4 -6 -5 -12 -2 -15 2 -3 7 2 10 11 7 17 1 20 -8 4z"/>
<path d="M1536 5022 c-3 -5 1 -9 9 -9 8 0 12 4 9 9 -3 4 -7 8 -9 8 -2 0 -6 -4
-9 -8z"/>
<path d="M550 4882 c-46 -70 -110 -164 -142 -209 -32 -46 -55 -83 -50 -82 4 0
38 39 75 87 37 48 92 116 122 152 96 114 118 149 105 165 -7 8 -15 15 -19 15
-3 -1 -44 -58 -91 -128z"/>
<path d="M1505 5001 c-3 -5 -2 -12 3 -15 5 -3 9 1 9 9 0 17 -3 19 -12 6z"/>
<path d="M1483 4975 c0 -8 4 -12 9 -9 5 3 6 10 3 15 -9 13 -12 11 -12 -6z"/>
<path d="M1317 4864 c-82 -53 -126 -88 -121 -96 4 -7 3 -8 -5 -4 -13 8 -118
-71 -113 -86 1 -5 -2 -7 -7 -4 -5 3 -15 -1 -22 -10 -11 -13 -9 -14 17 -8 45
11 72 28 170 106 93 75 223 188 214 187 -3 0 -63 -38 -133 -85z m-137 -107 c0
-2 -10 -12 -22 -23 l-23 -19 19 23 c18 21 26 27 26 19z m-50 -40 c0 -2 -10
-12 -22 -23 l-23 -19 19 23 c18 21 26 27 26 19z"/>
<path d="M1699 4921 c-13 -11 -21 -22 -18 -25 3 -3 16 5 29 19 28 30 22 33
-11 6z"/>
<path d="M210 4625 c-19 -23 -8 -50 20 -50 19 0 26 6 28 24 5 35 -26 53 -48
26z"/>
<path d="M236 4395 c-25 -19 -30 -74 -9 -97 23 -26 78 -23 97 4 46 65 -26 140
-88 93z"/>
<path d="M870 4392 c0 -6 -8 -13 -17 -15 -16 -4 -16 -5 -1 -6 18 -1 34 16 24
26 -3 4 -6 1 -6 -5z"/>
<path d="M80 4248 c-29 -40 -60 -79 -68 -85 -9 -7 -11 -13 -5 -13 6 0 34 33
63 73 30 39 58 78 63 85 5 6 7 12 5 12 -3 0 -29 -33 -58 -72z"/>
<path d="M959 4273 c-13 -16 -12 -17 4 -4 9 7 17 15 17 17 0 8 -8 3 -21 -13z"/>
<path d="M41 3824 c-12 -15 -21 -31 -21 -36 0 -5 -4 -6 -10 -3 -5 3 -10 1 -10
-4 0 -22 17 -10 43 29 29 46 28 53 -2 14z"/>
<path d="M4250 3725 c0 -5 5 -17 10 -25 5 -8 10 -10 10 -5 0 6 -5 17 -10 25
-5 8 -10 11 -10 5z"/>
<path d="M4269 3618 c-3 -22 -1 -34 4 -29 5 5 7 21 5 37 -3 27 -4 26 -9 -8z"/>
<path d="M4216 3475 c-9 -26 -7 -32 5 -12 6 10 9 21 6 23 -2 3 -7 -2 -11 -11z"/>
<path d="M696 3469 c2 -4 -6 -15 -18 -23 -25 -18 -42 -21 -33 -6 3 6 -1 7 -10
3 -11 -4 -13 -8 -6 -13 7 -4 -21 -26 -64 -53 -59 -36 -77 -43 -82 -32 -3 8
-13 15 -22 15 -14 -1 -13 -3 3 -15 11 -8 18 -16 15 -18 -26 -23 -122 -76 -129
-72 -5 3 -12 0 -16 -6 -4 -8 -3 -9 4 -5 7 4 12 5 12 3 0 -3 -15 -14 -32 -26
-18 -11 -87 -56 -153 -101 -66 -44 -130 -85 -142 -90 -13 -5 -23 -14 -23 -20
0 -15 26 -12 40 5 7 9 19 14 26 11 7 -3 16 -1 19 5 4 5 11 7 16 4 5 -4 9 -1 9
4 0 15 -13 14 -29 -1 -11 -11 -13 -10 -7 0 7 12 60 43 71 42 3 -1 20 10 36 24
29 24 43 30 62 27 5 -1 5 4 1 10 -4 7 0 9 14 5 11 -4 23 -2 27 3 3 7 0 8 -9 5
-9 -3 -16 -4 -16 -1 0 11 98 55 106 49 4 -4 3 -1 -1 7 -6 11 -4 13 9 8 9 -4
15 -3 12 2 -5 8 57 31 84 31 6 0 51 33 100 73 48 39 104 85 124 100 40 31 47
53 17 53 -11 0 -18 -4 -15 -7z"/>
<path d="M360 3385 c-19 -14 -30 -25 -25 -25 6 0 24 11 40 25 39 31 30 31 -15
0z"/>
<path d="M636 3308 c-34 -44 -22 -51 15 -9 32 37 34 41 20 41 -5 0 -21 -14
-35 -32z"/>
<path d="M420 3310 c-9 -6 -10 -10 -3 -10 6 0 15 5 18 10 8 12 4 12 -15 0z"/>
<path d="M540 3176 c0 -8 8 -14 19 -13 11 0 17 6 14 14 -7 18 -33 17 -33 -1z"/>
<path d="M693 3115 c0 -8 4 -12 9 -9 5 3 6 10 3 15 -9 13 -12 11 -12 -6z"/>
<path d="M196 3096 c-10 -15 -12 -27 -6 -31 6 -3 15 6 20 21 14 36 7 41 -14
10z"/>
<path d="M661 3067 c-13 -21 -12 -21 5 -5 10 10 16 20 13 22 -3 3 -11 -5 -18
-17z"/>
<path d="M120 3056 c0 -2 9 -6 20 -9 11 -3 18 -1 14 4 -5 9 -34 13 -34 5z"/>
<path d="M50 3000 c-13 -8 -13 -10 2 -10 9 0 20 5 23 10 8 13 -5 13 -25 0z"/>
<path d="M25 2970 c-7 -12 12 -12 40 0 18 8 17 9 -7 9 -15 1 -30 -3 -33 -9z"/>
<path d="M160 2906 c0 -22 3 -27 11 -19 8 8 8 16 0 30 -9 16 -10 14 -11 -11z"/>
<path d="M51 2874 c0 -11 3 -14 6 -6 3 7 2 16 -1 19 -3 4 -6 -2 -5 -13z"/>
<path d="M4685 2876 c-27 -11 -28 -13 -9 -18 14 -3 25 1 33 13 6 11 10 19 9
19 -2 -1 -16 -7 -33 -14z"/>
<path d="M108 2863 c7 -3 16 -2 19 1 4 3 -2 6 -13 5 -11 0 -14 -3 -6 -6z"/>
<path d="M49 2777 c6 -8 7 -18 3 -22 -4 -5 -1 -5 6 -1 10 6 10 11 1 22 -6 8
-14 14 -16 14 -3 0 0 -6 6 -13z"/>
<path d="M13 2768 c-8 -12 -9 -21 -4 -44 0 -4 8 -1 16 6 11 9 12 16 5 25 -5 6
-7 15 -3 18 3 4 4 7 1 7 -3 0 -10 -6 -15 -12z m12 -17 c3 -5 2 -12 -3 -15 -5
-3 -9 1 -9 9 0 17 3 19 12 6z"/>
<path d="M4435 2600 c-3 -5 1 -10 9 -10 9 0 16 5 16 10 0 6 -4 10 -9 10 -6 0
-13 -4 -16 -10z"/>
<path d="M4365 2576 l-30 -13 31 1 c17 1 31 6 31 14 0 6 -1 12 -1 12 -1 -1
-14 -7 -31 -14z"/>
<path d="M4305 2540 c-10 -11 -25 -20 -33 -20 -9 0 -13 -3 -9 -6 10 -10 47 7
57 27 14 25 8 24 -15 -1z"/>
<path d="M4083 2433 c9 -2 23 -2 30 0 6 3 -1 5 -18 5 -16 0 -22 -2 -12 -5z"/>
<path d="M4400 2391 c0 -6 -7 -7 -17 -4 -11 4 -14 3 -9 -5 4 -7 3 -12 -3 -12
-5 0 -12 4 -15 9 -7 11 -82 8 -93 -3 -5 -5 2 -5 14 -2 26 8 67 -10 57 -25 -3
-6 14 -1 37 11 54 27 53 27 40 35 -6 3 -11 2 -11 -4z m-45 -21 c3 -5 2 -10 -4
-10 -5 0 -13 5 -16 10 -3 6 -2 10 4 10 5 0 13 -4 16 -10z"/>
<path d="M3960 2382 c0 -5 -17 -17 -37 -25 -21 -9 -29 -15 -18 -13 11 3 37 7
58 11 23 4 37 11 34 18 -4 14 -37 22 -37 9z"/>
<path d="M4295 2351 c17 -8 18 -10 3 -10 -10 -1 -18 -6 -18 -12 0 -6 -9 -9
-20 -6 -11 3 -18 0 -17 -7 1 -6 -4 -10 -11 -8 -8 1 -11 -2 -8 -7 8 -12 97 31
92 44 -1 6 -11 11 -22 12 -18 3 -18 2 1 -6z"/>
<path d="M3975 2340 c-3 -5 -1 -10 4 -10 6 0 11 5 11 10 0 6 -2 10 -4 10 -3 0
-8 -4 -11 -10z"/>
<path d="M3850 2320 c-8 -5 -10 -10 -5 -10 6 0 17 5 25 10 8 5 11 10 5 10 -5
0 -17 -5 -25 -10z"/>
<path d="M3918 2323 c7 -3 16 -2 19 1 4 3 -2 6 -13 5 -11 0 -14 -3 -6 -6z"/>
<path d="M3807 2289 c4 -13 8 -18 11 -10 2 7 -1 18 -6 23 -8 8 -9 4 -5 -13z"/>
<path d="M4080 2306 c0 -9 30 -14 35 -6 4 6 -3 10 -14 10 -12 0 -21 -2 -21 -4z"/>
<path d="M4193 2286 c0 -8 6 -12 14 -9 7 3 10 9 7 14 -8 14 -21 11 -21 -5z"/>
<path d="M4161 2277 c-8 -10 -7 -14 2 -14 8 0 14 6 14 14 0 7 -1 13 -2 13 -2
0 -8 -6 -14 -13z"/>
<path d="M3800 2250 c6 -11 13 -20 16 -20 2 0 0 9 -6 20 -6 11 -13 20 -16 20
-2 0 0 -9 6 -20z"/>
<path d="M3826 2247 c3 -10 9 -15 12 -12 3 3 0 11 -7 18 -10 9 -11 8 -5 -6z"/>
<path d="M4083 2245 c1 -11 -4 -20 -13 -21 -32 -2 -37 -4 -37 -18 0 -8 6 -12
14 -9 7 3 10 9 7 15 -3 5 0 8 7 7 8 -1 26 3 41 9 28 11 46 32 29 32 -6 0 -11
-4 -11 -10 0 -14 -27 -12 -34 3 -3 6 -4 3 -3 -8z"/>
<path d="M4005 2200 c-4 -6 -16 -8 -28 -5 -16 5 -18 4 -8 -3 7 -5 9 -12 5 -14
-5 -3 -2 -3 6 0 8 2 20 5 26 5 6 0 11 6 11 14 0 16 -4 17 -12 3z"/>
<path d="M3817 2193 c-11 -10 -8 -53 3 -53 6 0 10 14 10 30 0 31 -2 35 -13 23z"/>
<path d="M3923 2165 c2 -17 -4 -20 -36 -19 -21 1 -37 0 -35 -1 2 -1 14 -8 27
-15 17 -9 21 -9 16 0 -4 7 -1 10 6 9 8 -1 25 3 39 9 17 7 19 11 8 11 -9 1 -19
7 -22 14 -3 6 -4 3 -3 -8z"/>
<path d="M3841 2117 c-8 -10 -7 -14 2 -14 8 0 14 6 14 14 0 7 -1 13 -2 13 -2
0 -8 -6 -14 -13z"/>
<path d="M2080 1640 c-20 -6 -21 -8 -5 -8 11 0 29 3 40 8 25 11 -1 11 -35 0z"/>
<path d="M2029 1626 c-2 -3 -17 -7 -33 -10 -16 -3 -31 -8 -34 -11 -4 -3 1 -34
10 -68 10 -34 49 -189 89 -344 59 -232 70 -285 59 -298 -28 -34 -57 -12 -143
110 -22 31 -45 32 -49 3 -6 -41 -28 -33 -28 11 0 22 -3 42 -7 44 -5 3 -9 -44
-9 -104 -2 -95 0 -106 13 -93 8 8 28 21 44 29 16 9 29 20 29 26 0 6 9 8 20 4
13 -4 20 -2 20 7 0 7 7 2 16 -11 13 -18 14 -25 4 -34 -10 -9 -12 -8 -7 5 8 23
-8 32 -23 13 -9 -11 -9 -15 -1 -15 7 0 10 -4 7 -8 -5 -9 4 -11 55 -15 23 -1
38 -12 60 -41 29 -39 36 -57 22 -55 -23 4 -30 -4 -29 -30 1 -18 5 -27 14 -24
6 3 12 1 12 -5 0 -11 -33 -22 -67 -22 -12 0 -24 -6 -26 -12 -3 -7 -6 -4 -6 7
-1 12 3 25 9 31 6 6 6 22 0 44 -9 32 -8 33 5 16 8 -11 15 -14 15 -7 0 7 5 9
10 6 6 -3 10 -18 9 -33 0 -24 -1 -25 -10 -7 -7 17 -8 17 -6 2 4 -33 21 -19 32
27 7 27 8 51 3 60 -10 18 -28 21 -28 5 0 -5 5 -7 10 -4 14 9 12 -4 -3 -19 -10
-11 -24 -11 -66 -2 -52 10 -54 10 -75 -17 -11 -15 -36 -45 -53 -66 -18 -21
-33 -49 -33 -62 0 -53 -21 -99 -59 -130 -32 -25 -44 -45 -65 -112 -14 -44 -24
-83 -21 -85 3 -3 5 -1 5 5 0 6 19 30 43 54 24 24 47 52 50 62 4 10 11 15 17
12 13 -8 13 -56 -1 -92 -7 -19 -7 -29 0 -31 6 -2 9 -8 5 -13 -10 -17 8 -9 24
11 10 11 50 35 90 55 l73 36 51 -46 c78 -70 100 -75 34 -7 -35 36 -56 65 -51
72 4 6 25 24 46 40 34 24 37 29 21 34 -21 7 -52 -2 -52 -14 0 -5 5 -10 12 -12
8 -3 9 -6 1 -11 -12 -8 -79 40 -75 54 1 6 -1 8 -6 5 -5 -3 -17 0 -27 7 -16 13
-16 15 2 45 11 18 23 29 28 24 4 -4 4 3 1 15 -7 21 29 111 40 100 3 -2 -4 -21
-16 -41 -20 -36 -28 -65 -10 -36 5 8 12 11 16 7 4 -3 2 -13 -4 -20 -9 -10 -8
-18 3 -33 8 -10 15 -14 15 -9 0 6 -5 16 -12 23 -9 9 -9 12 0 12 7 0 12 6 12
14 0 15 98 50 134 48 16 -1 15 4 -10 30 -16 17 -24 32 -18 35 8 2 8 20 2 56
-4 29 -7 63 -6 77 1 14 -1 31 -6 38 -4 7 -5 33 -2 56 4 23 2 53 -4 67 -9 20
-9 18 -4 -16 9 -62 -7 -34 -21 37 -7 35 -24 117 -39 183 -14 65 -23 128 -20
140 3 13 2 16 -4 7 -6 -9 -13 6 -21 45 -7 32 -17 77 -23 101 -6 23 -9 44 -7
45 2 2 15 8 29 14 14 7 20 12 14 12 -6 1 -13 -1 -15 -3z m-19 -680 c0 -3 -4
-8 -10 -11 -5 -3 -10 -1 -10 4 0 6 5 11 10 11 6 0 10 -2 10 -4z m57 -72 c-3
-3 -12 -4 -19 -1 -8 3 -5 6 6 6 11 1 17 -2 13 -5z m30 -96 c-3 -8 -6 -5 -6 6
-1 11 2 17 5 13 3 -3 4 -12 1 -19z m66 -61 c-3 -5 -11 0 -19 10 -20 27 -17 39
5 17 10 -10 16 -23 14 -27z m-53 -207 c0 -5 -4 -10 -10 -10 -5 0 -10 5 -10 10
0 6 5 10 10 10 6 0 10 -4 10 -10z"/>
<path d="M2021 1570 c14 -31 19 -36 19 -24 0 6 -7 19 -16 30 -14 18 -14 18 -3
-6z"/>
<path d="M1395 1460 c3 -5 13 -10 21 -10 8 0 15 -10 15 -22 1 -20 2 -21 6 -4
3 12 -2 25 -13 33 -21 15 -38 17 -29 3z"/>
<path d="M1677 1418 c-4 -12 -7 -39 -7 -60 0 -20 -9 -65 -20 -100 -11 -34 -20
-74 -20 -88 0 -14 -5 -42 -11 -63 -10 -37 -12 -39 -43 -33 -40 8 -52 -4 -71
-68 -8 -25 -22 -55 -33 -66 -11 -12 -24 -50 -31 -93 -17 -96 -30 -139 -43
-131 -7 4 -8 -5 -3 -27 5 -26 4 -31 -5 -19 -9 12 -10 7 -5 -20 5 -27 4 -32 -5
-20 -9 12 -10 4 -6 -35 3 -28 2 -42 -2 -31 -6 14 -11 7 -20 -33 -6 -28 -9 -57
-6 -66 4 -8 1 -15 -5 -15 -15 0 -14 -65 2 -78 8 -7 23 -3 50 14 l37 25 -24 26
c-14 15 -29 23 -33 19 -4 -4 3 -16 16 -27 13 -11 21 -23 17 -26 -11 -11 -44
30 -48 62 -3 17 -3 24 -1 17 6 -16 1 -17 64 18 63 35 69 36 69 13 0 -15 -2
-16 -10 -3 -8 13 -11 11 -16 -8 -4 -12 -11 -22 -16 -22 -5 0 -6 4 -3 10 8 13
-1 13 -28 -1 -32 -17 -32 -17 -7 -39 28 -24 34 -25 26 -4 -4 11 -1 14 13 9 11
-3 24 1 32 12 12 15 12 16 -1 9 -9 -4 -8 -1 3 7 9 8 17 21 17 29 0 8 4 18 9
23 17 18 61 183 61 226 0 24 12 100 26 169 25 116 29 128 64 162 31 31 40 49
51 105 7 37 13 98 14 135 0 56 -4 71 -21 89 l-21 21 -6 -24z m-297 -1028 c-8
-5 -19 -10 -25 -10 -5 0 -3 5 5 10 8 5 20 10 25 10 6 0 3 -5 -5 -10z"/>
<path d="M2510 1421 c0 -5 5 -13 10 -16 6 -3 10 -2 10 4 0 5 -4 13 -10 16 -5
3 -10 2 -10 -4z"/>
<path d="M1405 1403 c-5 -10 -9 -27 -9 -38 -1 -11 -6 -19 -13 -18 -8 2 -10 -4
-6 -14 4 -11 3 -14 -5 -9 -8 5 -10 2 -6 -8 3 -9 1 -16 -5 -16 -5 0 -15 -10
-22 -22 -8 -16 -2 -13 20 10 41 43 72 105 62 121 -6 10 -10 8 -16 -6z m8 -18
c-3 -9 -8 -14 -10 -11 -3 3 -2 9 2 15 9 16 15 13 8 -4z"/>
<path d="M2480 1371 c0 -6 4 -13 10 -16 6 -3 7 1 4 9 -7 18 -14 21 -14 7z"/>
<path d="M2071 1344 c0 -11 3 -14 6 -6 3 7 2 16 -1 19 -3 4 -6 -2 -5 -13z"/>
<path d="M2560 1313 c0 -5 7 -18 15 -29 13 -18 14 -18 8 4 -5 22 -23 41 -23
25z"/>
<path d="M2596 1287 c3 -10 9 -15 12 -12 3 3 0 11 -7 18 -10 9 -11 8 -5 -6z"/>
<path d="M4677 1213 c-25 -38 -56 -81 -69 -98 l-22 -30 24 20 c14 11 31 28 38
38 7 9 18 15 23 11 6 -3 24 6 40 22 22 21 29 37 29 66 0 21 -4 38 -9 38 -4 0
-29 -30 -54 -67z"/>
<path d="M2645 1211 c3 -5 1 -12 -3 -15 -5 -3 -7 -16 -5 -30 3 -13 0 -27 -6
-30 -6 -4 -11 -18 -11 -32 0 -14 4 -22 10 -19 6 3 10 1 10 -4 0 -11 -21 -15
-49 -11 -9 1 -12 -4 -8 -14 4 -9 3 -16 -2 -16 -5 0 -8 -8 -7 -17 0 -10 -5 -17
-12 -15 -9 2 -12 -4 -7 -17 8 -26 -52 -71 -67 -50 -7 10 -7 7 -3 -9 5 -16 -1
-33 -19 -57 -14 -18 -26 -37 -26 -42 0 -5 -8 -16 -19 -24 -13 -12 -32 -15 -71
-11 -36 3 -51 1 -46 -6 14 -24 -16 -21 -38 3 l-24 26 -5 -23 c-3 -15 -5 -11
-6 13 -1 39 25 62 41 37 5 -9 8 -10 8 -1 0 18 -18 25 -37 14 -14 -7 -21 -3
-35 20 -10 16 -25 29 -34 29 -13 0 -11 -6 9 -29 15 -18 27 -48 31 -80 4 -29
11 -49 15 -46 5 3 7 -4 4 -15 -7 -25 3 -64 20 -82 31 -33 155 -206 151 -211
-4 -4 30 -148 87 -364 l21 -83 290 0 c228 0 289 3 285 12 -38 85 -107 261
-104 264 3 3 89 -161 144 -274 0 -2 15 -2 31 0 l31 3 -21 45 c-45 100 -51 110
-59 104 -5 -3 -6 1 -4 9 5 12 -6 40 -73 187 -11 25 -36 83 -55 130 -107 258
-139 335 -184 430 -27 58 -55 121 -63 140 -8 19 -18 38 -23 41 -5 4 -10 15
-11 25 -3 30 -37 104 -48 104 -5 0 -7 -4 -3 -9z m12 -48 c-3 -10 -5 -4 -5 12
0 17 2 24 5 18 2 -7 2 -21 0 -30z m14 -46 c-10 -9 -11 -8 -5 6 3 10 9 15 12
12 3 -3 0 -11 -7 -18z m-386 -418 c11 -16 1 -19 -13 -3 -7 8 -8 14 -3 14 5 0
13 -5 16 -11z m-25 -14 c7 -9 8 -15 2 -15 -5 0 -12 7 -16 15 -3 8 -4 15 -2 15
2 0 9 -7 16 -15z m60 -60 c0 -12 -19 -12 -23 0 -4 9 -1 12 9 8 7 -3 14 -7 14
-8z m30 -15 c0 -5 -2 -10 -4 -10 -3 0 -8 5 -11 10 -3 6 -1 10 4 10 6 0 11 -4
11 -10z m44 -16 c3 -8 2 -12 -4 -9 -6 3 -10 10 -10 16 0 14 7 11 14 -7z m-59
-4 c3 -6 -1 -7 -9 -4 -18 7 -21 14 -7 14 6 0 13 -4 16 -10z m45 -21 c0 -6 -4
-7 -10 -4 -5 3 -10 11 -10 16 0 6 5 7 10 4 6 -3 10 -11 10 -16z m547 -23 c-12
-9 -14 -16 -8 -21 6 -3 11 -11 11 -18 0 -6 -7 -4 -17 5 -13 14 -14 20 -3 32 7
9 18 16 24 16 6 0 3 -7 -7 -14z m-32 -59 c4 5 5 2 0 -6 -7 -12 -12 -10 -27 8
-10 13 -18 28 -18 35 0 6 8 -1 18 -17 10 -15 22 -24 27 -20z m-58 -23 c-3 -3
-12 -4 -19 -1 -8 3 -5 6 6 6 11 1 17 -2 13 -5z m-54 -96 c-2 -4 -12 0 -22 10
-10 9 -16 20 -14 24 2 4 12 0 22 -10 10 -9 16 -20 14 -24z m-39 -47 c-5 -6
-33 31 -33 44 -1 6 8 -1 19 -15 10 -14 17 -27 14 -29z"/>
<path d="M1302 1118 c3 -7 15 -14 29 -15 22 -2 22 -2 4 6 -16 8 -17 10 -3 10
9 1 19 -3 23 -9 3 -5 12 -7 20 -4 26 10 5 24 -36 24 -28 0 -39 -4 -37 -12z"/>
<path d="M2580 1116 c0 -9 5 -16 10 -16 6 0 10 4 10 9 0 6 -4 13 -10 16 -5 3
-10 -1 -10 -9z"/>
<path d="M4545 1100 c-3 -5 -1 -10 4 -10 6 0 11 5 11 10 0 6 -2 10 -4 10 -3 0
-8 -4 -11 -10z"/>
<path d="M2492 1088 c-7 -7 -12 -16 -12 -21 0 -5 7 -1 16 8 9 9 14 18 12 20
-2 3 -10 -1 -16 -7z"/>
<path d="M4310 1081 c0 -6 4 -13 10 -16 6 -3 7 1 4 9 -7 18 -14 21 -14 7z"/>
<path d="M1803 1074 c4 -4 17 -12 29 -18 19 -10 23 -21 26 -70 2 -40 -2 -65
-13 -82 -13 -20 -13 -23 0 -18 17 7 35 64 35 112 0 36 -37 82 -66 82 -10 0
-14 -3 -11 -6z"/>
<path d="M4030 1060 c0 -5 6 -10 14 -10 8 0 18 5 21 10 3 6 -3 10 -14 10 -12
0 -21 -4 -21 -10z"/>
<path d="M4425 1037 c-4 -10 -5 -21 -1 -24 10 -10 18 4 13 24 -4 17 -4 17 -12
0z"/>
<path d="M433 1033 l-42 -4 42 -37 c23 -20 47 -41 53 -47 47 -42 237 -201 244
-203 4 -2 28 24 53 57 37 48 43 61 30 65 -9 4 -25 4 -37 1 -16 -5 -17 -4 -7 4
11 7 -2 17 -57 44 -66 32 -86 36 -63 12 5 -6 26 -41 46 -80 20 -38 27 -60 17
-48 -11 12 -23 19 -27 15 -5 -4 -5 -1 -1 6 9 16 -12 44 -27 35 -5 -3 -7 -2 -4
4 3 5 -4 20 -16 34 -13 13 -44 52 -70 87 -35 45 -54 62 -70 60 -12 -1 -41 -3
-64 -5z m260 -136 c-4 -6 0 -8 9 -5 8 4 15 0 15 -7 0 -10 -5 -11 -17 -5 -23
12 -35 41 -15 33 8 -3 12 -10 8 -16z m67 -57 c8 -16 8 -18 -5 -14 -8 3 -12 11
-8 17 4 6 0 8 -10 4 -11 -4 -14 -2 -10 8 6 17 19 11 33 -15z"/>
<path d="M2406 1021 c-8 -12 3 -41 15 -41 13 0 11 18 -3 23 -10 4 -9 8 2 16 9
7 10 11 3 11 -6 0 -14 -4 -17 -9z"/>
<path d="M4251 1011 c-10 -6 -10 -10 -1 -16 13 -8 24 -1 19 14 -3 6 -10 7 -18
2z"/>
<path d="M2151 954 c0 -11 3 -14 6 -6 3 7 2 16 -1 19 -3 4 -6 -2 -5 -13z"/>
<path d="M2208 943 c6 -2 18 -2 25 0 6 3 1 5 -13 5 -14 0 -19 -2 -12 -5z"/>
<path d="M2340 940 c0 -5 4 -10 9 -10 6 0 13 5 16 10 3 6 -1 10 -9 10 -9 0
-16 -4 -16 -10z"/>
<path d="M2190 921 c0 -6 9 -11 19 -11 11 0 22 -8 24 -17 4 -14 5 -12 6 5 0
12 -3 22 -8 22 -5 0 -16 3 -25 6 -9 3 -16 1 -16 -5z"/>
<path d="M2320 910 c0 -5 5 -10 10 -10 6 0 10 5 10 10 0 6 -4 10 -10 10 -5 0
-10 -4 -10 -10z"/>
<path d="M3973 874 c-29 -13 -53 -26 -53 -28 0 -11 24 -56 29 -56 3 0 32 15
63 33 56 32 57 34 42 55 -18 26 -16 26 -81 -4z"/>
<path d="M1960 856 c0 -20 2 -36 4 -36 8 0 12 61 4 66 -4 3 -8 -11 -8 -30z"/>
<path d="M2420 869 c0 -5 5 -7 10 -4 6 3 10 8 10 11 0 2 -4 4 -10 4 -5 0 -10
-5 -10 -11z"/>
<path d="M2015 830 c-3 -5 3 -10 15 -10 12 0 18 5 15 10 -3 6 -10 10 -15 10
-5 0 -12 -4 -15 -10z"/>
<path d="M2345 830 c-3 -5 -1 -10 4 -10 6 0 11 5 11 10 0 6 -2 10 -4 10 -3 0
-8 -4 -11 -10z"/>
<path d="M1410 800 c-1 -3 -3 -21 -5 -40 -4 -31 -3 -32 6 -11 5 14 8 32 6 40
-3 9 -6 14 -7 11z"/>
<path d="M1611 766 c2 -2 38 -6 79 -8 42 -3 64 -2 50 2 -25 8 -137 13 -129 6z"/>
<path d="M676 708 c-19 -17 -23 -27 -17 -38 8 -12 13 -12 30 4 11 10 18 23 15
27 -3 5 0 9 5 9 6 0 11 5 11 10 0 16 -17 11 -44 -12z"/>
<path d="M2207 673 c5 -12 3 -14 -7 -8 -10 6 -12 4 -7 -8 3 -8 0 -18 -8 -21
-10 -3 -12 0 -8 11 4 11 2 14 -8 11 -8 -3 -15 -10 -15 -16 -1 -7 -2 -16 -3
-22 0 -5 -8 -10 -17 -10 -10 0 -14 6 -11 14 4 10 0 12 -15 8 -18 -4 -19 -7 -6
-16 8 -6 17 -19 21 -29 8 -20 27 -14 27 9 0 13 45 39 62 36 4 -1 4 6 1 15 -9
22 14 8 27 -18 9 -16 7 -21 -15 -31 -14 -6 -25 -15 -25 -19 0 -4 14 -1 30 7
17 9 30 19 30 22 0 9 -49 82 -55 82 -2 0 -1 -7 2 -17z"/>
<path d="M1220 666 c0 -2 7 -7 16 -10 8 -3 12 -2 9 4 -6 10 -25 14 -25 6z"/>
<path d="M4612 644 c-12 -13 -19 -24 -14 -24 5 0 19 11 32 25 13 14 19 25 14
24 -5 0 -19 -11 -32 -25z"/>
<path d="M1190 645 c-7 -9 -10 -18 -6 -22 3 -3 6 -1 6 6 0 7 4 10 8 7 5 -3 9
1 9 9 0 19 -2 19 -17 0z"/>
<path d="M1260 640 c0 -5 5 -9 12 -7 7 1 15 -13 19 -33 5 -30 7 -31 8 -8 0 14
-2 33 -5 42 -7 17 -34 22 -34 6z"/>
<path d="M1150 605 c-10 -12 -10 -18 0 -30 7 -8 16 -12 21 -9 5 3 9 0 9 -5 0
-6 5 -10 11 -8 6 1 21 -11 32 -26 42 -55 20 -191 -51 -315 -14 -25 -21 -49
-17 -60 6 -15 8 -15 26 7 10 13 19 31 19 40 0 10 3 20 6 24 9 8 49 128 68 203
18 70 20 112 6 134 -7 10 -8 1 -5 -30 2 -25 0 -52 -5 -60 -8 -13 -10 -12 -10
3 0 19 -25 63 -49 88 -17 16 -24 19 -42 19 -6 0 -8 9 -4 20 8 24 2 26 -15 5z"/>
<path d="M2065 610 c-3 -5 -1 -10 4 -10 6 0 11 5 11 10 0 6 -2 10 -4 10 -3 0
-8 -4 -11 -10z"/>
<path d="M2208 613 c7 -3 16 -2 19 1 4 3 -2 6 -13 5 -11 0 -14 -3 -6 -6z"/>
<path d="M1215 600 c3 -5 8 -10 11 -10 2 0 4 5 4 10 0 6 -5 10 -11 10 -5 0 -7
-4 -4 -10z"/>
<path d="M1990 600 c0 -5 5 -10 11 -10 5 0 7 5 4 10 -3 6 -8 10 -11 10 -2 0
-4 -4 -4 -10z"/>
<path d="M2033 583 c-7 -2 -13 -8 -13 -12 0 -11 49 -1 56 10 5 9 -22 11 -43 2z"/>
<path d="M2162 562 c2 -11 -3 -16 -16 -15 -12 1 -15 -2 -8 -9 7 -7 17 -6 31 1
25 14 27 27 6 35 -11 4 -15 0 -13 -12z"/>
<path d="M2065 559 c-19 -9 -19 -9 2 -5 12 2 24 -1 26 -8 2 -6 7 -8 11 -5 13
12 -19 27 -39 18z"/>
<path d="M576 477 c-45 -108 -87 -196 -97 -203 -10 -6 -79 22 -79 32 0 3 20
53 45 111 25 58 44 108 42 109 -2 2 -23 -35 -47 -83 -55 -111 -57 -114 -78
-103 -10 5 -62 28 -117 51 -55 23 -122 52 -150 64 -27 13 -60 26 -72 30 l-23
6 0 -245 0 -246 370 0 370 0 0 38 c0 21 11 56 25 81 14 23 25 45 25 46 0 2
-12 -3 -27 -10 -43 -22 -47 -13 -84 183 -9 53 -14 63 -29 59 -19 -5 -29 24
-31 87 -1 69 -13 67 -43 -7z"/>
<path d="M1247 534 c6 -15 23 -19 23 -5 0 5 -7 11 -14 14 -10 4 -13 1 -9 -9z"/>
<path d="M2045 530 c3 -5 8 -10 11 -10 2 0 4 5 4 10 0 6 -5 10 -11 10 -5 0 -7
-4 -4 -10z"/>
<path d="M1460 336 c0 -13 -11 -65 -24 -115 -13 -50 -20 -91 -16 -91 8 0 37
114 47 188 3 23 3 42 -1 42 -3 0 -6 -11 -6 -24z"/>
<path d="M1795 265 c-22 -25 -39 -50 -37 -55 1 -6 -1 -9 -5 -9 -22 4 -24 -3
-7 -23 l19 -23 -22 19 c-19 15 -25 16 -38 6 -8 -7 -12 -17 -8 -23 3 -6 1 -7
-5 -3 -6 3 -16 -2 -22 -13 -10 -19 -9 -19 17 -6 33 17 41 13 49 -30 3 -19 9
-33 13 -31 3 2 7 -7 7 -20 3 -47 11 -54 59 -54 36 0 45 4 46 18 0 14 2 14 9
-3 18 -44 15 51 -3 100 -10 27 -21 82 -25 122 l-7 74 -40 -46z m-54 -112 c13
-17 13 -17 -6 -3 -11 8 -22 16 -24 17 -2 2 0 3 6 3 6 0 17 -8 24 -17z m123
-79 c3 -8 2 -12 -4 -9 -6 3 -10 10 -10 16 0 14 7 11 14 -7z"/>
<path d="M1682 252 c-1 -6 -24 -52 -52 -100 -31 -55 -50 -100 -50 -120 0 -31
1 -32 46 -32 40 0 45 2 39 17 -26 66 -22 124 11 158 10 10 14 28 11 52 -2 21
-4 32 -5 25z"/>
<path d="M927 133 c-18 -34 -24 -70 -7 -43 6 9 10 10 10 3 0 -6 -4 -15 -10
-18 -12 -8 -13 -35 -1 -35 15 0 33 56 29 91 l-3 34 -18 -32z"/>
</g>
</svg>
